<svg width="841" height="639" viewBox="0 0 841 639" fill="none" xmlns="http://www.w3.org/2000/svg">
<path d="M767.437 639L767.437 -3.80811e-05M668.43 639L668.43 -4.67366e-05M569.424 639L569.424 -5.5392e-05M470.417 639L470.417 -6.40474e-05M371.411 639L371.411 -7.27029e-05M272.404 639L272.404 -8.13583e-05M173.397 639L173.397 -9.00137e-05M74.3907 639L74.3908 -9.86692e-05M841 186.765L5.47945e-05 186.765M841 97.181L6.26261e-05 97.1809M841 276.348L4.69629e-05 276.348M841 365.931L3.91313e-05 365.931M841 455.514L3.12996e-05 455.514M841 545.097L2.3468e-05 545.097" stroke="url(#paint0_linear_108_41)"/>
<defs>
<linearGradient id="paint0_linear_108_41" x1="3.10783e-06" y1="639" x2="713.561" y2="-72.6661" gradientUnits="userSpaceOnUse">
<stop offset="0.00946072" stop-opacity="0.05"/>
<stop offset="0.409266" stop-color="white" stop-opacity="0"/>
<stop offset="0.724003" stop-opacity="0"/>
<stop offset="1" stop-color="white" stop-opacity="0.27"/>
</linearGradient>
</defs>
</svg>
