<svg width="32" height="26" viewBox="0 0 32 26" fill="none" xmlns="http://www.w3.org/2000/svg">
<path fill-rule="evenodd" clip-rule="evenodd" d="M30.0394 17.1363C29.69 17.1384 29.3541 17.0008 29.1061 16.7541L25.9379 13.5773C25.6898 13.3305 25.354 13.193 25.0045 13.195H11.6352C10.587 13.195 9.58185 12.7765 8.84187 12.0321C8.10189 11.2876 7.68793 10.2784 7.69143 9.22726V3.95454C7.69143 1.77051 9.45711 0 11.6352 0H27.4102C29.5883 0 31.354 1.77051 31.354 3.95454V9.22726C31.354 9.95527 30.7654 10.5454 30.0394 10.5454C29.3134 10.5454 28.7248 9.95527 28.7248 9.22726V3.95454C28.7248 3.22653 28.1363 2.63636 27.4102 2.63636H11.6352C10.9092 2.63636 10.3206 3.22653 10.3206 3.95454V9.22726C10.3206 9.95527 10.9092 10.5454 11.6352 10.5454H25.0045C26.0501 10.5464 27.0526 10.9636 27.7915 11.7054L30.9596 14.8823C31.3371 15.2577 31.4519 15.8242 31.2505 16.3176C31.0491 16.811 30.5711 17.1341 30.0394 17.1363ZM2.66204 18.1705V12.8523C2.66204 12.118 3.25796 11.5227 3.99306 11.5227C4.72817 11.5227 5.32408 10.9275 5.32408 10.1932C5.32408 9.45889 4.72817 8.86364 3.99306 8.86364C1.78776 8.86364 0 10.6494 0 12.8523V18.1705C0 18.9047 0.595918 19.5 1.33102 19.5C2.06612 19.5 2.66204 18.9047 2.66204 18.1705ZM5.4763 22.3668L2.31859 25.5513L2.30549 25.5381C1.98528 25.9152 1.48249 26.0794 1.00386 25.9633C0.525222 25.8472 0.151514 25.4703 0.0363795 24.9876C-0.0787547 24.5049 0.0841172 23.9979 0.458032 23.675L3.62884 20.4905C4.36529 19.7469 5.36443 19.3286 6.40658 19.3277H19.7318C20.4555 19.3277 21.0421 18.7361 21.0421 18.0064V16.685C21.0421 15.9552 21.6287 15.3636 22.3523 15.3636C23.076 15.3636 23.6626 15.9552 23.6626 16.685V18.0064C23.6626 20.1956 21.9027 21.9704 19.7318 21.9704H6.40658C6.05642 21.9719 5.72141 22.1146 5.4763 22.3668Z" fill="white"/>
</svg>
