<svg width="44" height="44" viewBox="0 0 44 44" fill="none" xmlns="http://www.w3.org/2000/svg">
<path d="M31 14.999V12.999C31 8.02847 26.9706 3.99902 22 3.99902C17.0294 3.99902 13 8.02847 13 12.999V14.999" stroke="#014FED" stroke-width="3"/>
<path d="M36.0001 27.9991V21.874C36.0001 17.5248 32.4742 13.999 28.125 13.999H15.875C11.5258 13.999 8 17.5248 8 21.874V27.9991C8 35.7311 14.268 41.9991 22 41.9991C29.732 41.9991 36.0001 35.7311 36.0001 27.9991Z" fill="white" stroke="#014FED" stroke-width="3"/>
<path d="M36 25.999H42" stroke="#014FED" stroke-width="3" stroke-linecap="round"/>
<path d="M8.00001 25.999H2" stroke="#014FED" stroke-width="3" stroke-linecap="round"/>
<path d="M27 4.99903L32 1.99902" stroke="#014FED" stroke-width="3" stroke-linecap="round"/>
<path d="M17 4.99903L12 1.99902" stroke="#014FED" stroke-width="3" stroke-linecap="round"/>
<path d="M39 37.9994L35 36.3994" stroke="#014FED" stroke-width="3" stroke-linecap="round"/>
<path d="M39 13.9985L35 15.5985" stroke="#014FED" stroke-width="3" stroke-linecap="round"/>
<path d="M5 37.9994L9.00001 36.3994" stroke="#014FED" stroke-width="3" stroke-linecap="round"/>
<path d="M5 13.9985L9.00001 15.5985" stroke="#014FED" stroke-width="3" stroke-linecap="round"/>
<path d="M22 40.999V27.999" stroke="#014FED" stroke-width="3" stroke-linecap="round"/>
</svg>
