<svg width="70" height="70" viewBox="0 0 70 70" fill="none" xmlns="http://www.w3.org/2000/svg">
<path d="M62.332 69.1667H11.082C5.42111 69.1667 0.832031 64.5776 0.832031 58.9167V11.0834C0.832031 5.42245 5.42111 0.833374 11.082 0.833374H45.2487C50.9096 0.833374 55.4987 5.42246 55.4987 11.0834V21.3334M62.332 69.1667C58.5581 69.1667 55.4987 66.1073 55.4987 62.3334V21.3334M62.332 69.1667C66.106 69.1667 69.1654 66.1073 69.1654 62.3334V28.1667C69.1654 24.3928 66.106 21.3334 62.332 21.3334H55.4987M14.4987 17.9167H41.832M14.4987 35H41.832M14.4987 52.0834H28.1654" stroke="white" stroke-width="1.5" stroke-linecap="round" stroke-linejoin="round"/>
</svg>
