<svg width="38" height="38" viewBox="0 0 38 38" fill="none" xmlns="http://www.w3.org/2000/svg">
<path d="M19.0003 0.666748C8.88032 0.666748 0.666992 8.88008 0.666992 19.0001C0.666992 29.1201 8.88032 37.3334 19.0003 37.3334C29.1203 37.3334 37.3337 29.1201 37.3337 19.0001C37.3337 8.88008 29.1203 0.666748 19.0003 0.666748ZM9.37532 22.9234C9.37532 23.6751 8.75199 24.2984 8.00032 24.2984C7.24866 24.2984 6.62532 23.6751 6.62532 22.9234V15.0767C6.62532 14.3251 7.24866 13.7017 8.00032 13.7017C8.75199 13.7017 9.37532 14.3251 9.37532 15.0767V22.9234ZM14.8753 25.5451C14.8753 26.2967 14.252 26.9201 13.5003 26.9201C12.7487 26.9201 12.1253 26.2967 12.1253 25.5451V12.4551C12.1253 11.7034 12.7487 11.0801 13.5003 11.0801C14.252 11.0801 14.8753 11.7034 14.8753 12.4551V25.5451ZM20.3753 28.1667C20.3753 28.9184 19.752 29.5417 19.0003 29.5417C18.2487 29.5417 17.6253 28.9184 17.6253 28.1667V9.83341C17.6253 9.08175 18.2487 8.45841 19.0003 8.45841C19.752 8.45841 20.3753 9.08175 20.3753 9.83341V28.1667ZM25.8753 25.5451C25.8753 26.2967 25.252 26.9201 24.5003 26.9201C23.7487 26.9201 23.1253 26.2967 23.1253 25.5451V12.4551C23.1253 11.7034 23.7487 11.0801 24.5003 11.0801C25.252 11.0801 25.8753 11.7034 25.8753 12.4551V25.5451ZM31.3753 22.9234C31.3753 23.6751 30.752 24.2984 30.0003 24.2984C29.2487 24.2984 28.6253 23.6751 28.6253 22.9234V15.0767C28.6253 14.3251 29.2487 13.7017 30.0003 13.7017C30.752 13.7017 31.3753 14.3251 31.3753 15.0767V22.9234Z" fill="#1B1B1B"/>
</svg>
