<svg width="96" height="103" viewBox="0 0 96 103" fill="none" xmlns="http://www.w3.org/2000/svg">
<path d="M22.5308 20.942C22.5308 20.942 20.962 20.1183 19.9425 15.4515C18.923 10.7847 27.8644 2.157 27.8644 2.157C27.8644 2.157 30.6095 0.823591 41.9826 1.01969C53.3557 1.21578 56.0615 3.05894 58.4146 5.88257C68.674 18.1938 87.9451 42.7074 92.5195 62.0368C93.5603 64.9158 95 63.3435 95 67.9941C95 71.3259 93.1758 72.2435 92.6902 72.7869C80.8467 86.0422 51.8262 90.4346 38.8843 90.4346C25.9424 90.4346 26.021 87.4541 22.4132 87.4541C18.8054 87.4541 14.805 99.3762 5.8831 101.102C-0.764166 87.7678 -0.489785 60.7865 5.8831 46.531C20.8837 46.531 23.2759 52.2958 29.4722 52.2958C34.7668 52.2958 33.9429 49.0017 42.2962 49.0017C50.6496 49.0017 62.1792 58.5314 62.1792 58.5314C55.6495 50.4134 62.929 30.6341 48.8259 17.4713C46.1789 15.0005 44.9435 23.1185 36.7077 23.1185C35.4932 23.8349 31.1236 24.4093 31.1236 24.4093" stroke="white" stroke-width="2" stroke-linecap="round" stroke-linejoin="round"/>
<path d="M65.668 61.8936C67.9621 64.5113 72.6784 68.0611 77.0608 68.0023" stroke="white" stroke-width="2" stroke-linecap="round" stroke-linejoin="round"/>
<path d="M18.4137 65.2573C13.3547 71.3361 12.6878 77.9245 7.58984 80.6696" stroke="white" stroke-width="2" stroke-linecap="round" stroke-linejoin="round"/>
<path d="M26.2188 68.0032C33.827 75.7282 47.592 75.2185 55.6314 66.9829" stroke="white" stroke-width="2" stroke-linecap="round" stroke-linejoin="round"/>
<path d="M55.9732 11.8828C55.6203 13.3535 53.7379 15.6181 52.3555 16.0006" stroke="white" stroke-width="2" stroke-linecap="round" stroke-linejoin="round"/>
<path d="M34.4729 6.00012C33.4433 7.23548 28.4431 13.5886 28.561 14.6181C28.6788 15.6476 27.9434 20.7949 29.5022 21.3537C31.0609 21.9124 36.3553 20.9712 36.2965 18.7359C36.2377 16.5005 35.7965 15.3535 35.9141 14.2652C36.0316 13.1769 39.5614 7.79425 39.5614 7.79425" stroke="white" stroke-width="2" stroke-linecap="round" stroke-linejoin="round"/>
<path d="M29.3836 5.05896C28.0895 6.61772 23.8246 12.6474 23.8834 15.1769C23.9422 17.7064 24.2071 19.5593 24.7951 20.1184C25.3831 20.6774 28.5625 19.3632 28.5625 19.3632" stroke="white" stroke-width="2" stroke-linecap="round" stroke-linejoin="round"/>
<path d="M29.7013 21.4093C29.7013 21.4093 30.9723 22.7951 31.1194 24.2951C31.2665 25.7951 29.1782 27.2363 27.2662 27.7658C25.3543 28.2953 22.6777 24.7068 22.6777 23.3539C22.6777 22.001 24.7955 20.1185 24.7955 20.1185" stroke="white" stroke-width="2" stroke-linecap="round" stroke-linejoin="round"/>
<path d="M41.7828 14.2676C41.8493 16.1721 42.3143 18.2319 40.6755 18.8296C39.0367 19.4274 36.1953 19.2829 36.1953 19.2829" stroke="white" stroke-width="2" stroke-linecap="round" stroke-linejoin="round"/>
</svg>
