<svg width="40" height="37" viewBox="0 0 40 37" fill="none" xmlns="http://www.w3.org/2000/svg">
<path fill-rule="evenodd" clip-rule="evenodd" d="M37.3326 12.0958L31.7036 3.19503C31.1357 2.29734 30.139 1.75286 29.0675 1.75498H10.8004C9.72892 1.75286 8.73219 2.29734 8.16429 3.19503L2.53531 12.0958C1.81908 13.2318 1.9321 14.6957 2.81444 15.7113L18.7554 34.095C19.0501 34.4353 19.4807 34.6313 19.934 34.6313C20.3873 34.6313 20.8179 34.4353 21.1125 34.095L37.0535 15.7113C37.9358 14.6957 38.0488 13.2318 37.3326 12.0958ZM21.2996 31.6396C20.9633 31.9078 20.5307 32.0351 20.0973 31.9934C19.664 31.9516 19.2656 31.7444 18.9903 31.4173L11.7018 22.7646C11.1274 22.085 11.2301 21.0828 11.9311 20.526C12.6321 19.9692 13.6661 20.0687 14.2405 20.7483L21.5289 29.401C21.816 29.7288 21.9537 30.1554 21.9105 30.5833C21.8672 31.0112 21.6468 31.4038 21.2996 31.6714V31.6396Z" fill="white"/>
<path d="M31.7036 3.19503L32.9714 2.39329L32.9713 2.39309L31.7036 3.19503ZM29.0675 1.75498V3.25498L29.0704 3.25498L29.0675 1.75498ZM10.8004 1.75498L10.7975 3.25498H10.8004V1.75498ZM8.16429 3.19503L6.89665 2.39309L6.89653 2.39329L8.16429 3.19503ZM2.53531 12.0958L1.26756 11.2941L1.26644 11.2958L2.53531 12.0958ZM2.81444 15.7113L3.94771 14.7286L3.94677 14.7275L2.81444 15.7113ZM18.7554 34.095L19.8896 33.1132L19.8887 33.1123L18.7554 34.095ZM21.1125 34.095L19.9792 33.1123L19.9783 33.1132L21.1125 34.095ZM37.0535 15.7113L35.9211 14.7275L35.9202 14.7286L37.0535 15.7113ZM21.2996 31.6396H22.7996V28.5251L20.3645 30.4668L21.2996 31.6396ZM18.9903 31.4173L20.1377 30.4512L20.1375 30.451L18.9903 31.4173ZM11.7018 22.7646L12.849 21.7982L12.8474 21.7963L11.7018 22.7646ZM14.2405 20.7483L15.3877 19.7819L15.3861 19.7799L14.2405 20.7483ZM21.5289 29.401L20.3817 30.3674L20.391 30.3784L20.4006 30.3893L21.5289 29.401ZM21.2996 31.6714H19.7996V34.721L22.2152 32.8595L21.2996 31.6714ZM38.6004 11.2941L32.9714 2.39329L30.4359 3.99678L36.0648 12.8976L38.6004 11.2941ZM32.9713 2.39309C32.1249 1.05528 30.6459 0.251855 29.0645 0.254982L29.0704 3.25498C29.6321 3.25387 30.1465 3.5394 30.436 3.99698L32.9713 2.39309ZM29.0675 0.254979H10.8004V3.25498H29.0675V0.254979ZM10.8034 0.254982C9.22206 0.251855 7.74299 1.05528 6.89665 2.39309L9.43192 3.99698C9.72139 3.5394 10.2358 3.25387 10.7975 3.25498L10.8034 0.254982ZM6.89653 2.39329L1.26756 11.2941L3.80307 12.8976L9.43204 3.99678L6.89653 2.39329ZM1.26644 11.2958C0.196512 12.9929 0.366936 15.1813 1.6821 16.695L3.94677 14.7275C3.49726 14.2101 3.44165 13.4708 3.80418 12.8958L1.26644 11.2958ZM1.68116 16.694L17.6222 35.0776L19.8887 33.1123L3.94771 14.7286L1.68116 16.694ZM17.6213 35.0767C18.2031 35.7488 19.0488 36.1313 19.934 36.1313V33.1313C19.9125 33.1313 19.897 33.1218 19.8896 33.1132L17.6213 35.0767ZM19.934 36.1313C20.8191 36.1313 21.6648 35.7488 22.2466 35.0767L19.9783 33.1132C19.9709 33.1218 19.9554 33.1313 19.934 33.1313V36.1313ZM22.2457 35.0776L38.1868 16.694L35.9202 14.7286L19.9792 33.1123L22.2457 35.0776ZM38.1858 16.695C39.501 15.1813 39.6714 12.9929 38.6015 11.2958L36.0637 12.8958C36.4263 13.4708 36.3707 14.2101 35.9211 14.7275L38.1858 16.695ZM20.3645 30.4668C20.3367 30.489 20.2921 30.5052 20.241 30.5003L19.9536 33.4865C20.7693 33.565 21.59 33.3266 22.2348 32.8124L20.3645 30.4668ZM20.241 30.5003C20.1903 30.4954 20.1552 30.472 20.1377 30.4512L17.8428 32.3834C18.376 33.0168 19.1376 33.4079 19.9536 33.4865L20.241 30.5003ZM20.1375 30.451L12.849 21.7982L10.5546 23.7309L17.843 32.3837L20.1375 30.451ZM12.8474 21.7963C12.8366 21.7835 12.8333 21.7749 12.832 21.7705C12.8304 21.7652 12.8296 21.759 12.8303 21.7521C12.8311 21.7452 12.8332 21.7378 12.8372 21.7305C12.8406 21.7241 12.8477 21.7135 12.864 21.7006L10.9982 19.3514C9.6415 20.4289 9.42961 22.4001 10.5562 23.7329L12.8474 21.7963ZM12.864 21.7006C12.8943 21.6765 12.9372 21.6616 12.9896 21.6666C13.0418 21.6716 13.0755 21.6936 13.0949 21.7166L15.3861 19.7799C14.283 18.475 12.3275 18.2956 10.9982 19.3514L12.864 21.7006ZM13.0932 21.7146L20.3817 30.3674L22.6762 28.4346L15.3877 19.7819L13.0932 21.7146ZM20.4006 30.3893C20.4096 30.3996 20.4139 30.4087 20.416 30.4152C20.4181 30.4217 20.4186 30.4273 20.418 30.4325L23.4029 30.734C23.4885 29.8863 23.2143 29.0486 22.6573 28.4127L20.4006 30.3893ZM20.418 30.4325C20.4172 30.4412 20.4116 30.462 20.384 30.4832L22.2152 32.8595C22.8821 32.3456 23.3173 31.5811 23.4029 30.734L20.418 30.4325ZM22.7996 31.6714V31.6396H19.7996V31.6714H22.7996Z" fill="#014FED"/>
</svg>
