<svg width="32" height="32" viewBox="0 0 32 32" fill="none" xmlns="http://www.w3.org/2000/svg">
<path d="M27.3797 4.61913C25.4272 2.6665 22.2844 2.6665 15.9991 2.6665C9.71368 2.6665 6.57098 2.6665 4.61837 4.61913C3.60838 5.6291 3.12081 6.95749 2.88542 8.87448C3.59298 8.08693 4.44315 7.43088 5.39782 6.94445C6.4398 6.41353 7.55553 6.19824 8.79089 6.0973C9.9844 5.9998 11.453 5.99981 13.2486 5.99984H18.7495C20.5452 5.99981 22.0137 5.9998 23.2072 6.0973C24.4427 6.19824 25.5584 6.41353 26.6003 6.94445C27.5549 7.43088 28.4052 8.08693 29.1127 8.87448C28.8773 6.95749 28.3897 5.6291 27.3797 4.61913Z" fill="white"/>
<path fill-rule="evenodd" clip-rule="evenodd" d="M2.66667 18.6667C2.66667 14.9329 2.66667 13.0661 3.3933 11.6401C4.03244 10.3857 5.05232 9.36577 6.30674 8.72663C7.73282 8 9.59966 8 13.3333 8H18.6667C22.4004 8 24.2672 8 25.6933 8.72663C26.9477 9.36577 27.9676 10.3857 28.6067 11.6401C29.3333 13.0661 29.3333 14.9329 29.3333 18.6667C29.3333 22.4004 29.3333 24.2672 28.6067 25.6933C27.9676 26.9477 26.9477 27.9676 25.6933 28.6067C24.2672 29.3333 22.4004 29.3333 18.6667 29.3333H13.3333C9.59966 29.3333 7.73282 29.3333 6.30674 28.6067C5.05232 27.9676 4.03244 26.9477 3.3933 25.6933C2.66667 24.2672 2.66667 22.4004 2.66667 18.6667ZM16.7071 13.9596C16.5196 13.772 16.2652 13.6667 16 13.6667C15.7348 13.6667 15.4804 13.772 15.2929 13.9596L11.9596 17.2929C11.569 17.6835 11.569 18.3165 11.9596 18.7071C12.3501 19.0976 12.9833 19.0976 13.3737 18.7071L15 17.0809V22.6667C15 23.2189 15.4477 23.6667 16 23.6667C16.5523 23.6667 17 23.2189 17 22.6667V17.0809L18.6263 18.7071C19.0168 19.0976 19.6499 19.0976 20.0404 18.7071C20.4309 18.3165 20.4309 17.6835 20.0404 17.2929L16.7071 13.9596Z" fill="white"/>
</svg>
