<svg width="42" height="42" viewBox="0 0 42 42" fill="none" xmlns="http://www.w3.org/2000/svg">
<circle cx="21" cy="21" r="19.5" fill="black" fill-opacity="0.1" stroke="#014FED" stroke-width="3"/>
<path d="M17.6473 27.8546L17.6473 27.8547L17.6538 27.8583C18.2957 28.2107 19.0459 28.4425 19.8944 28.5641V29.52C19.8944 29.7844 19.9927 30.0254 20.1809 30.2136C20.369 30.4017 20.61 30.5 20.8744 30.5H22.0944C22.3589 30.5 22.5998 30.4017 22.788 30.2136C22.9762 30.0254 23.0744 29.7844 23.0744 29.52V28.5762C23.8755 28.448 24.5986 28.227 25.238 27.9072L25.2381 27.9073L25.2448 27.9037C26.0033 27.5099 26.606 26.9888 27.0327 26.3339C27.478 25.6577 27.6944 24.8804 27.6944 24.02C27.6944 23.1637 27.506 22.4132 27.0913 21.8039C26.6941 21.1873 26.0848 20.7078 25.3062 20.347C24.5565 19.9936 23.6014 19.6913 22.4525 19.4341C21.6529 19.2241 21.0219 19.0302 20.5535 18.8532C20.1136 18.6818 19.8517 18.5068 19.7126 18.3528C19.5875 18.2018 19.5144 18.0084 19.5144 17.74C19.5144 17.3307 19.6566 17.0894 19.9166 16.9258C20.2531 16.7228 20.733 16.6 21.3944 16.6C22.0349 16.6 22.5026 16.7331 22.8371 16.956C23.1938 17.1938 23.3418 17.4379 23.3808 17.6796L23.3915 17.7458L23.4193 17.8069C23.5167 18.0213 23.6708 18.2272 23.9108 18.3472L24.1344 17.9L23.9108 18.3472C24.0874 18.4355 24.2773 18.48 24.4744 18.48H26.3344C26.5702 18.48 26.8292 18.4052 27.0161 18.183C27.1601 18.014 27.2544 17.8028 27.2544 17.56H27.2546L27.2542 17.5461C27.2379 16.9574 27.0339 16.3786 26.6787 15.8154C26.3131 15.2223 25.7897 14.713 25.1276 14.2812C24.5445 13.9009 23.8565 13.637 23.0744 13.4795V12.48C23.0744 12.2156 22.9762 11.9746 22.788 11.7864L22.4353 12.1391L22.788 11.7864C22.5998 11.5983 22.3589 11.5 22.0944 11.5H20.8744C20.61 11.5 20.369 11.5983 20.1809 11.7864L20.5335 12.1391L20.1809 11.7864C19.9927 11.9746 19.8944 12.2156 19.8944 12.48V13.4285C18.6954 13.6381 17.7016 14.0928 16.9474 14.8201C16.1041 15.6332 15.6744 16.636 15.6744 17.8C15.6744 18.6678 15.8553 19.4287 16.2535 20.0498L16.2534 20.0499L16.2584 20.0573C16.6621 20.6628 17.2478 21.1484 17.9873 21.5255L17.9873 21.5255L17.9944 21.529C18.7156 21.8825 19.5852 22.1799 20.5958 22.4257C21.4524 22.6366 22.1313 22.8378 22.6389 23.0282L22.6388 23.0283L22.6493 23.0319C23.153 23.2082 23.458 23.3907 23.6209 23.5536L23.6307 23.5634L23.641 23.5726C23.7732 23.6909 23.8544 23.8539 23.8544 24.12C23.8544 24.495 23.7081 24.777 23.3717 25.0076C23.0283 25.2431 22.4364 25.4 21.5144 25.4C20.9548 25.4 20.5228 25.3248 20.2001 25.1958C19.8545 25.0575 19.6114 24.8967 19.4473 24.7265C19.2686 24.5122 19.1517 24.3121 19.0836 24.1271L19.074 24.1012L19.0616 24.0764C18.9764 23.906 18.8562 23.7597 18.702 23.6454C18.497 23.4783 18.2502 23.42 18.0144 23.42H16.2344C15.9919 23.42 15.7706 23.5048 15.589 23.6604L15.5745 23.6729L15.5609 23.6864C15.381 23.8663 15.2944 24.0963 15.2944 24.34V24.3514L15.2949 24.3627C15.326 25.0451 15.5438 25.6953 15.9322 26.3078L15.9322 26.3078L15.9352 26.3125C16.3343 26.9265 16.9135 27.4374 17.6473 27.8546Z" fill="#014FED" stroke="#014FED"/>
</svg>
