<svg width="40" height="40" viewBox="0 0 40 40" fill="none" xmlns="http://www.w3.org/2000/svg">
<mask id="mask0_2253_105" style="mask-type:alpha" maskUnits="userSpaceOnUse" x="0" y="0" width="40" height="40">
<rect width="40" height="40" fill="#D9D9D9"/>
</mask>
<g mask="url(#mask0_2253_105)">
<path d="M10.0655 36.1752C10.7705 35.9865 11.5172 36.0949 12.1705 36.4201C14.6287 37.6446 17.4005 38.3332 20.3333 38.3332C30.4585 38.3332 38.6667 30.125 38.6667 19.9998C38.6667 9.87461 30.4585 1.6665 20.3333 1.6665C10.2081 1.6665 2 9.87461 2 19.9998C2 22.9326 2.68864 25.7044 3.91301 28.1628M10.0655 36.1752L9.67785 34.7261L9.6778 34.7261M10.0655 36.1752L5.98447 37.2671C4.21285 37.741 2.59208 36.1203 3.0661 34.3488M10.0655 36.1752L9.6778 34.7261M9.6778 34.7261C10.7822 34.4306 11.9038 34.6117 12.839 35.0773L12.8393 35.0774C15.0944 36.2007 17.6378 36.8332 20.3333 36.8332C29.63 36.8332 37.1667 29.2965 37.1667 19.9998C37.1667 10.703 29.63 3.1665 20.3333 3.1665C11.0365 3.1665 3.5 10.703 3.5 19.9998C3.5 22.6953 4.13244 25.2387 5.25566 27.494L3.91301 28.1628M9.6778 34.7261L5.59685 35.818M3.91301 28.1628L5.25569 27.494C5.7216 28.4294 5.90255 29.5511 5.60708 30.6553L4.15805 30.2676M3.91301 28.1628C4.23839 28.816 4.34668 29.5627 4.15805 30.2676M4.15805 30.2676L3.0661 34.3488M4.15805 30.2676L5.60707 30.6553L4.51513 34.7365L3.0661 34.3488M3.0661 34.3488L4.51513 34.7365C4.33949 35.3929 4.94001 35.9937 5.59685 35.818M5.59685 35.818L5.98389 37.2649L5.59677 35.8181L5.59685 35.818Z" fill="#E5EEFF" stroke="#014FED" stroke-width="3"/>
<path d="M26.8043 15.361C27.3412 15.8979 27.3412 16.7685 26.8043 17.3055L19.4709 24.6388C18.9418 25.1681 18.0864 25.1769 17.5465 24.6584L13.8798 21.1384C13.332 20.6126 13.3142 19.7421 13.8401 19.1943C14.366 18.6465 15.2365 18.6288 15.7843 19.1547L18.4791 21.7418L24.8598 15.361C25.3968 14.824 26.2673 14.824 26.8043 15.361Z" fill="#014FED"/>
</g>
</svg>
