<svg width="73" height="73" viewBox="0 0 73 73" fill="none" xmlns="http://www.w3.org/2000/svg">
<path d="M47.2583 1H15.2333C7.37248 1 1 7.37248 1 15.2333V57.9333C1 65.7942 7.37248 72.1667 15.2333 72.1667H57.9333C65.7942 72.1667 72.1667 65.7942 72.1667 57.9333V25.9083M72.1667 43.7L61.7087 36.1703C56.2744 32.2576 48.8478 32.662 43.8705 37.1415L29.2962 50.2584C24.3189 54.738 16.8922 55.1424 11.458 51.2297L1 43.7M33.025 24.1292C33.025 29.0422 29.0422 33.025 24.1292 33.025C19.2161 33.025 15.2333 29.0422 15.2333 24.1292C15.2333 19.2161 19.2161 15.2333 24.1292 15.2333C29.0422 15.2333 33.025 19.2161 33.025 24.1292ZM61.9513 2.56332L49.7778 14.7368C49.319 15.1956 48.9943 15.7712 48.839 16.4013L47.3116 22.5981C46.9914 23.8972 48.1658 25.0716 49.4649 24.7514L55.6617 23.2239C56.2918 23.0686 56.8674 22.744 57.3262 22.2851L69.4997 10.1117C71.5841 8.02726 71.5841 4.64774 69.4997 2.56332C67.4152 0.478894 64.0357 0.478894 61.9513 2.56332Z" stroke="black" stroke-width="1.5" stroke-linecap="round" stroke-linejoin="round"/>
</svg>
