<svg width="36" height="32" viewBox="0 0 36 32" fill="none" xmlns="http://www.w3.org/2000/svg">
<path fill-rule="evenodd" clip-rule="evenodd" d="M31.5388 21.8373C31.5388 20.7497 31.1067 19.7067 30.3377 18.9377C29.5687 18.1686 28.5256 17.7366 27.4381 17.7366H27.4335C26.3459 17.7366 25.3028 18.1686 24.5338 18.9377C23.7648 19.7067 23.3328 20.7497 23.3328 21.8373C23.3328 23.6708 23.3328 26.0658 23.3328 27.8992C23.3328 28.9867 23.7648 30.0298 24.5338 30.7988C25.3028 31.5679 26.3459 31.9999 27.4335 31.9999H27.4381C28.5256 31.9999 29.5687 31.5679 30.3377 30.7988C31.1067 30.0298 31.5388 28.9867 31.5388 27.8992V21.8373ZM11.7333 21.8373C11.7334 20.7497 11.3013 19.7067 10.5323 18.9377C9.76326 18.1686 8.72026 17.7366 7.63265 17.7366H7.62805C6.54048 17.7366 5.49743 18.1686 4.7284 18.9377C3.95937 19.7067 3.52734 20.7497 3.52734 21.8373C3.52734 23.6708 3.52734 26.0658 3.52734 27.8992C3.52734 28.9867 3.95937 30.0298 4.7284 30.7988C5.49743 31.5679 6.54048 31.9999 7.62805 31.9999H7.63265C8.72026 31.9999 9.76326 31.5679 10.5323 30.7988C11.3013 30.0298 11.7334 28.9867 11.7333 27.8992V21.8373ZM28.8783 21.8373V27.8992C28.8783 28.2811 28.7265 28.6475 28.4564 28.9176C28.1864 29.1877 27.8201 29.3394 27.4381 29.3394C27.438 29.3394 27.4335 29.3394 27.4335 29.3394C27.0515 29.3394 26.6852 29.1877 26.4151 28.9176C26.145 28.6475 25.9933 28.2811 25.9933 27.8992V21.8373C25.9933 21.4554 26.145 21.089 26.4151 20.8189C26.6852 20.5488 27.0515 20.3971 27.4334 20.3971C27.4335 20.3971 27.438 20.3971 27.438 20.3971C27.8201 20.3971 28.1864 20.5488 28.4564 20.8189C28.7265 21.089 28.8783 21.4554 28.8783 21.8373ZM9.07285 21.8373V27.8992C9.07285 28.2811 8.92114 28.6475 8.65104 28.9176C8.38095 29.1877 8.01465 29.3394 7.63273 29.3394C7.63256 29.3394 7.62809 29.3394 7.62809 29.3394C7.24604 29.3394 6.87975 29.1877 6.60969 28.9176C6.3396 28.6475 6.18784 28.2811 6.18784 27.8992V21.8373C6.18784 21.4554 6.3396 21.089 6.60969 20.8189C6.87975 20.5488 7.24604 20.3971 7.62801 20.3971C7.62818 20.3971 7.63265 20.3971 7.63265 20.3971C8.01465 20.3971 8.38095 20.5488 8.65104 20.8189C8.92114 21.089 9.07285 21.4554 9.07285 21.8373Z" fill="white"/>
<path fill-rule="evenodd" clip-rule="evenodd" d="M35.064 24.9472V15.5195C35.0639 6.94834 28.1156 0 19.5443 0C18.2089 0 16.855 0 15.5196 0C6.94834 0 0 6.94834 0 15.5195C0 20.5319 0 24.9472 0 24.9472C0 25.6814 0.596037 26.2774 1.33025 26.2774C2.06442 26.2774 2.6605 25.6814 2.6605 24.9472V15.5196C2.66054 8.41765 8.41774 2.6605 15.5196 2.6605C16.855 2.6605 18.2089 2.6605 19.5443 2.6605C26.6462 2.6605 32.4034 8.41765 32.4035 15.5195C32.4035 15.5196 32.4035 24.9472 32.4035 24.9472C32.4035 25.6814 32.9995 26.2774 33.7337 26.2774C34.4679 26.2774 35.064 25.6814 35.064 24.9472ZM13.5709 6.62158H20.7008C21.435 6.62158 22.0311 6.0255 22.0311 5.29133C22.0311 4.55712 21.435 3.96108 20.7008 3.96108H13.5709C12.8367 3.96108 12.2406 4.55712 12.2406 5.29133C12.2406 6.0255 12.8367 6.62158 13.5709 6.62158Z" fill="white"/>
</svg>
