<svg width="38" height="38" viewBox="0 0 38 38" fill="none" xmlns="http://www.w3.org/2000/svg">
<path d="M19 0.666748C8.88002 0.666748 0.666687 8.88008 0.666687 19.0001C0.666687 29.1201 8.88002 37.3334 19 37.3334C29.12 37.3334 37.3333 29.1201 37.3333 19.0001C37.3333 8.88008 29.12 0.666748 19 0.666748ZM9.37502 22.9234C9.37502 23.6751 8.75169 24.2984 8.00002 24.2984C7.24835 24.2984 6.62502 23.6751 6.62502 22.9234V15.0767C6.62502 14.3251 7.24835 13.7017 8.00002 13.7017C8.75169 13.7017 9.37502 14.3251 9.37502 15.0767V22.9234ZM14.875 25.5451C14.875 26.2967 14.2517 26.9201 13.5 26.9201C12.7484 26.9201 12.125 26.2967 12.125 25.5451V12.4551C12.125 11.7034 12.7484 11.0801 13.5 11.0801C14.2517 11.0801 14.875 11.7034 14.875 12.4551V25.5451ZM20.375 28.1667C20.375 28.9184 19.7517 29.5417 19 29.5417C18.2484 29.5417 17.625 28.9184 17.625 28.1667V9.83341C17.625 9.08175 18.2484 8.45841 19 8.45841C19.7517 8.45841 20.375 9.08175 20.375 9.83341V28.1667ZM25.875 25.5451C25.875 26.2967 25.2517 26.9201 24.5 26.9201C23.7484 26.9201 23.125 26.2967 23.125 25.5451V12.4551C23.125 11.7034 23.7484 11.0801 24.5 11.0801C25.2517 11.0801 25.875 11.7034 25.875 12.4551V25.5451ZM31.375 22.9234C31.375 23.6751 30.7517 24.2984 30 24.2984C29.2483 24.2984 28.625 23.6751 28.625 22.9234V15.0767C28.625 14.3251 29.2483 13.7017 30 13.7017C30.7517 13.7017 31.375 14.3251 31.375 15.0767V22.9234Z" fill="white"/>
</svg>
