<svg width="20" height="21" viewBox="0 0 20 21" fill="none" xmlns="http://www.w3.org/2000/svg">
<path fill-rule="evenodd" clip-rule="evenodd" d="M8.60352 1.82577C10.6635 -0.234159 14.0033 -0.23416 16.0632 1.82577C18.1231 3.8857 18.1231 7.2255 16.0632 9.28543L9.84096 15.5077C8.64014 16.7085 6.69323 16.7085 5.49241 15.5077C4.29159 14.3068 4.29159 12.3599 5.49241 11.1591L11.7146 4.93688C12.0563 4.59517 12.6104 4.59517 12.9521 4.93688C13.2938 5.27859 13.2938 5.83261 12.9521 6.17432L6.72985 12.3965C6.21245 12.9139 6.21245 13.7528 6.72985 14.2702C7.24725 14.7876 8.08612 14.7876 8.60352 14.2702L14.8257 8.04799C16.2023 6.67148 16.2023 4.43972 14.8257 3.06321C13.4492 1.68669 11.2175 1.68669 9.84096 3.06321L3.61873 9.28543C1.38311 11.5211 1.38311 15.1457 3.61873 17.3813C5.85435 19.6169 9.47901 19.6169 11.7146 17.3813L17.9369 11.1591C18.2786 10.8174 18.8326 10.8174 19.1743 11.1591C19.516 11.5008 19.516 12.0548 19.1743 12.3965L12.9521 18.6188C10.033 21.5378 5.30034 21.5378 2.3813 18.6188C-0.537741 15.6997 -0.537745 10.967 2.38129 8.048L8.60352 1.82577Z" fill="#28303F"/>
</svg>
