<svg width="28" height="27" viewBox="0 0 28 27" fill="none" xmlns="http://www.w3.org/2000/svg">
<path d="M7.08594 2.25L3.71094 6.75V22.5C3.71094 23.0967 3.94799 23.669 4.36995 24.091C4.7919 24.5129 5.3642 24.75 5.96094 24.75H21.7109C22.3077 24.75 22.88 24.5129 23.3019 24.091C23.7239 23.669 23.9609 23.0967 23.9609 22.5V6.75L20.5859 2.25H7.08594Z" stroke="white" stroke-width="2" stroke-linecap="round" stroke-linejoin="round"/>
<path d="M3.71094 6.75H23.9609" stroke="white" stroke-width="2" stroke-linecap="round" stroke-linejoin="round"/>
<path d="M18.3359 11.25C18.3359 12.4435 17.8618 13.5881 17.0179 14.432C16.174 15.2759 15.0294 15.75 13.8359 15.75C12.6425 15.75 11.4979 15.2759 10.654 14.432C9.81004 13.5881 9.33594 12.4435 9.33594 11.25" stroke="white" stroke-width="2" stroke-linecap="round" stroke-linejoin="round"/>
</svg>
