<svg width="32" height="24" viewBox="0 0 32 24" fill="none" xmlns="http://www.w3.org/2000/svg">
<path d="M24.7721 21.2816C24.1528 22.6431 22.7951 23.5171 21.2994 23.5171C18.6529 23.5171 16.8103 20.8884 17.713 18.4006L23.2255 3.20817C23.8645 1.44704 25.5376 0.274307 27.4111 0.274307C30.6499 0.274307 32.8051 3.62237 31.464 6.57054L24.7721 21.2816ZM7.40389 21.2355C6.79014 22.6226 5.41611 23.5171 3.89938 23.5171C1.25885 23.5171 -0.590557 20.9093 0.282761 18.4173L5.5925 3.26651C6.22064 1.47419 7.91258 0.274307 9.81179 0.274307C13.0441 0.274307 15.2082 3.59855 13.9003 6.55437L7.40389 21.2355Z" fill="#004FED"/>
</svg>
