<svg width="38" height="38" viewBox="0 0 38 38" fill="none" xmlns="http://www.w3.org/2000/svg">
<g clip-path="url(#clip0_554_33)">
<path d="M23.3388 12.1694C21.9428 12.4684 20.4895 12.6401 18.9996 12.6401C17.5098 12.6401 16.0565 12.4684 14.6605 12.1694C14.4522 13.7515 14.3091 15.4973 14.2566 17.4101H23.7426C23.6902 15.4973 23.5471 13.7515 23.3388 12.1694Z" fill="white"/>
<path d="M18.9993 28.54C17.7082 28.54 16.4394 28.7133 15.2087 29.017C16.2709 33.8968 17.9531 36.4901 18.9993 36.4901C20.0472 36.4901 21.7294 33.8968 22.79 29.017C21.5593 28.7133 20.292 28.54 18.9993 28.54Z" fill="white"/>
<path d="M18.9997 9.45984C20.3147 9.45984 21.5883 9.30399 22.8014 9.03531C21.7409 4.12218 20.0507 1.50977 18.9997 1.50977C17.9487 1.50977 16.2585 4.12218 15.198 9.03687C16.4112 9.30399 17.6847 9.45984 18.9997 9.45984Z" fill="white"/>
<path d="M19.0003 25.3601C20.4742 25.3601 21.9228 25.5494 23.3331 25.8785C23.5445 24.2837 23.6892 22.522 23.7417 20.5901H14.2573C14.3098 22.522 14.4545 24.2837 14.6675 25.8785C16.0763 25.5494 17.5248 25.3601 19.0003 25.3601Z" fill="white"/>
<path d="M26.3923 26.8691C28.4704 27.7483 30.4007 28.987 32.0845 30.577C32.1242 30.6136 32.1608 30.6517 32.1942 30.6914L33.1323 31.7742C35.8608 28.758 37.6432 24.8783 37.9993 20.5901H26.9233C26.8645 22.735 26.6864 24.8577 26.3923 26.8691Z" fill="white"/>
<path d="M11.5864 11.2566C9.29999 10.3471 7.30925 9.01948 5.81944 7.34997L4.8591 6.23535C2.13377 9.25158 0.356187 13.1265 0 17.41H11.076C11.1333 15.3112 11.3034 13.2314 11.5864 11.2566Z" fill="white"/>
<path d="M25.8006 30.0891C25.066 33.3184 23.9785 36.0278 22.557 37.7355C25.6352 37.152 28.448 35.8275 30.8139 33.9544L29.844 32.835C28.6308 31.6997 27.2634 30.7871 25.8006 30.0891Z" fill="white"/>
<path d="M26.924 17.4102H38C37.6438 13.1267 35.8646 9.25189 33.1409 6.2356L32.1965 7.33114C30.6987 9.01019 28.7016 10.3442 26.412 11.2553C26.6951 13.23 26.8651 15.3098 26.924 17.4102Z" fill="white"/>
<path d="M8.0978 32.8877C8.03422 32.9497 7.9658 33.0037 7.89269 33.0514L6.88464 33.7288C9.30938 35.7259 12.2366 37.1283 15.4421 37.7356C14.0206 36.0279 12.933 33.3186 12.1985 30.0908C10.7133 30.8 9.32526 31.7301 8.0978 32.8877Z" fill="white"/>
<path d="M11.076 20.5906H0C0.343442 24.7246 2.00818 28.4818 4.57289 31.4504L6.01188 30.4836C7.67185 28.9381 9.57032 27.7329 11.6071 26.8711C11.3129 24.8581 11.1348 22.7355 11.076 20.5906Z" fill="white"/>
<path d="M12.1688 8.04408C12.9049 4.75753 14.002 1.99568 15.4426 0.26416C12.3596 0.849309 9.54363 2.17694 7.17456 4.05477L8.20966 5.25361C9.23685 6.40475 10.6026 7.33968 12.1688 8.04408Z" fill="white"/>
<path d="M29.807 5.23394L30.8245 4.05418C28.457 2.17635 25.6396 0.84872 22.5565 0.265137C23.9971 1.99509 25.0942 4.75694 25.8303 8.04185C27.3997 7.33432 28.7703 6.39463 29.807 5.23394Z" fill="white"/>
</g>
<defs>
<clipPath id="clip0_554_33">
<rect width="38" height="38" fill="white"/>
</clipPath>
</defs>
</svg>
