<svg width="38" height="38" viewBox="0 0 38 38" fill="none" xmlns="http://www.w3.org/2000/svg">
<path d="M35.625 23.75H23.75V26.125H35.625V23.75Z" fill="white"/>
<path d="M30.875 28.5H23.75V30.875H30.875V28.5Z" fill="white"/>
<path d="M35.6256 20.1874V18.9999C35.6224 15.5511 34.5458 12.1889 32.5451 9.37973C30.5445 6.57058 27.719 4.45387 24.4608 3.32332C21.2026 2.19277 17.6733 2.10447 14.3626 3.07066C11.052 4.03685 8.12418 6.00962 5.98553 8.7152C3.84688 11.4208 2.60346 14.725 2.42781 18.1693C2.25217 21.6136 3.15301 25.0271 5.00533 27.9362C6.85765 30.8453 9.56957 33.1057 12.7648 34.4036C15.96 35.7016 19.4799 35.9728 22.8362 35.1796L22.29 32.8683C21.212 33.1225 20.1081 33.2505 19.0006 33.2499C18.775 33.2499 18.5553 33.2278 18.3321 33.2175C15.7554 29.3547 14.3488 24.8302 14.2814 20.1874H35.6256ZM33.2013 17.8124H26.096C25.964 13.4371 24.8376 9.14934 22.8023 5.27404C25.6073 6.05431 28.1068 7.67353 29.9655 9.91459C31.8242 12.1557 32.9532 14.9114 33.2013 17.8124ZM19.6692 4.7823C22.2459 8.64503 23.6524 13.1696 23.7199 17.8124H14.2814C14.3488 13.1696 15.7554 8.64503 18.3321 4.7823C18.5553 4.77197 18.775 4.74988 19.0006 4.74988C19.2262 4.74988 19.4459 4.77197 19.6692 4.7823ZM15.199 5.27404C13.1636 9.14934 12.0373 13.4371 11.9052 17.8124H4.79989C5.04798 14.9114 6.17707 12.1557 8.03576 9.91459C9.89446 7.67353 12.3939 6.05431 15.199 5.27404ZM15.199 32.7257C12.3939 31.9455 9.89446 30.3262 8.03576 28.0852C6.17707 25.8441 5.04798 23.0883 4.79989 20.1874H11.9052C12.0373 24.5626 13.1636 28.8504 15.199 32.7257Z" fill="white"/>
</svg>
