<svg width="44" height="40" viewBox="0 0 44 40" fill="none" xmlns="http://www.w3.org/2000/svg">
<rect x="9" y="14" width="26" height="23" fill="white"/>
<path d="M16 26C15.6044 26 15.2178 26.1173 14.8889 26.3371C14.56 26.5568 14.3036 26.8692 14.1522 27.2346C14.0009 27.6001 13.9613 28.0022 14.0384 28.3902C14.1156 28.7781 14.3061 29.1345 14.5858 29.4142C14.8655 29.6939 15.2219 29.8844 15.6098 29.9616C15.9978 30.0387 16.3999 29.9991 16.7654 29.8478C17.1308 29.6964 17.4432 29.44 17.6629 29.1111C17.8827 28.7822 18 28.3956 18 28C18 27.4696 17.7893 26.9609 17.4142 26.5858C17.0391 26.2107 16.5304 26 16 26ZM2 24C1.46957 24 0.960859 24.2107 0.585786 24.5858C0.210714 24.9609 0 25.4696 0 26V30C0 30.5304 0.210714 31.0391 0.585786 31.4142C0.960859 31.7893 1.46957 32 2 32C2.53043 32 3.03914 31.7893 3.41421 31.4142C3.78929 31.0391 4 30.5304 4 30V26C4 25.4696 3.78929 24.9609 3.41421 24.5858C3.03914 24.2107 2.53043 24 2 24ZM42 24C41.4696 24 40.9609 24.2107 40.5858 24.5858C40.2107 24.9609 40 25.4696 40 26V30C40 30.5304 40.2107 31.0391 40.5858 31.4142C40.9609 31.7893 41.4696 32 42 32C42.5304 32 43.0391 31.7893 43.4142 31.4142C43.7893 31.0391 44 30.5304 44 30V26C44 25.4696 43.7893 24.9609 43.4142 24.5858C43.0391 24.2107 42.5304 24 42 24ZM32 10H24V7.44C24.6046 7.09098 25.1072 6.58982 25.4581 5.98634C25.809 5.38285 25.9958 4.69805 26 4C26 2.93913 25.5786 1.92172 24.8284 1.17157C24.0783 0.421427 23.0609 0 22 0C20.9391 0 19.9217 0.421427 19.1716 1.17157C18.4214 1.92172 18 2.93913 18 4C18.0042 4.69805 18.191 5.38285 18.5419 5.98634C18.8928 6.58982 19.3954 7.09098 20 7.44V10H12C10.4087 10 8.88258 10.6321 7.75736 11.7574C6.63214 12.8826 6 14.4087 6 16V34C6 35.5913 6.63214 37.1174 7.75736 38.2426C8.88258 39.3679 10.4087 40 12 40H32C33.5913 40 35.1174 39.3679 36.2426 38.2426C37.3679 37.1174 38 35.5913 38 34V16C38 14.4087 37.3679 12.8826 36.2426 11.7574C35.1174 10.6321 33.5913 10 32 10ZM25.44 14L24.44 18H19.56L18.56 14H25.44ZM34 34C34 34.5304 33.7893 35.0391 33.4142 35.4142C33.0391 35.7893 32.5304 36 32 36H12C11.4696 36 10.9609 35.7893 10.5858 35.4142C10.2107 35.0391 10 34.5304 10 34V16C10 15.4696 10.2107 14.9609 10.5858 14.5858C10.9609 14.2107 11.4696 14 12 14H14.44L16 20.48C16.1095 20.9238 16.3677 21.3166 16.7316 21.5932C17.0955 21.8697 17.5431 22.0133 18 22H26C26.4569 22.0133 26.9045 21.8697 27.2684 21.5932C27.6323 21.3166 27.8905 20.9238 28 20.48L29.56 14H32C32.5304 14 33.0391 14.2107 33.4142 14.5858C33.7893 14.9609 34 15.4696 34 16V34ZM28 26C27.6044 26 27.2178 26.1173 26.8889 26.3371C26.56 26.5568 26.3036 26.8692 26.1522 27.2346C26.0009 27.6001 25.9613 28.0022 26.0384 28.3902C26.1156 28.7781 26.3061 29.1345 26.5858 29.4142C26.8655 29.6939 27.2219 29.8844 27.6098 29.9616C27.9978 30.0387 28.3999 29.9991 28.7654 29.8478C29.1308 29.6964 29.4432 29.44 29.6629 29.1111C29.8827 28.7822 30 28.3956 30 28C30 27.4696 29.7893 26.9609 29.4142 26.5858C29.0391 26.2107 28.5304 26 28 26Z" fill="#014FED"/>
</svg>
