<svg width="26" height="26" viewBox="0 0 26 26" fill="none" xmlns="http://www.w3.org/2000/svg">
<path d="M17.3359 3.25H1.08594V17.3333H17.3359V3.25Z" stroke="white" stroke-width="2" stroke-linecap="round" stroke-linejoin="round"/>
<path d="M17.3359 8.66663H21.6693L24.9193 11.9166V17.3333H17.3359V8.66663Z" stroke="white" stroke-width="2" stroke-linecap="round" stroke-linejoin="round"/>
<path d="M5.95833 22.75C7.4541 22.75 8.66667 21.5375 8.66667 20.0417C8.66667 18.5459 7.4541 17.3334 5.95833 17.3334C4.46256 17.3334 3.25 18.5459 3.25 20.0417C3.25 21.5375 4.46256 22.75 5.95833 22.75Z" stroke="white" stroke-width="2" stroke-linecap="round" stroke-linejoin="round"/>
<path d="M20.0443 22.75C21.54 22.75 22.7526 21.5375 22.7526 20.0417C22.7526 18.5459 21.54 17.3334 20.0443 17.3334C18.5485 17.3334 17.3359 18.5459 17.3359 20.0417C17.3359 21.5375 18.5485 22.75 20.0443 22.75Z" stroke="white" stroke-width="2" stroke-linecap="round" stroke-linejoin="round"/>
</svg>
