<svg width="36" height="36" viewBox="0 0 36 36" fill="none" xmlns="http://www.w3.org/2000/svg">
<path d="M18 3C9.72 3 3 9.72 3 18C3 26.28 9.72 33 18 33C26.28 33 33 26.28 33 18C33 9.72 26.28 3 18 3ZM10.125 21.21C10.125 21.825 9.615 22.335 9 22.335C8.385 22.335 7.875 21.825 7.875 21.21V14.79C7.875 14.175 8.385 13.665 9 13.665C9.615 13.665 10.125 14.175 10.125 14.79V21.21ZM14.625 23.355C14.625 23.97 14.115 24.48 13.5 24.48C12.885 24.48 12.375 23.97 12.375 23.355V12.645C12.375 12.03 12.885 11.52 13.5 11.52C14.115 11.52 14.625 12.03 14.625 12.645V23.355ZM19.125 25.5C19.125 26.115 18.615 26.625 18 26.625C17.385 26.625 16.875 26.115 16.875 25.5V10.5C16.875 9.885 17.385 9.375 18 9.375C18.615 9.375 19.125 9.885 19.125 10.5V25.5ZM23.625 23.355C23.625 23.97 23.115 24.48 22.5 24.48C21.885 24.48 21.375 23.97 21.375 23.355V12.645C21.375 12.03 21.885 11.52 22.5 11.52C23.115 11.52 23.625 12.03 23.625 12.645V23.355ZM28.125 21.21C28.125 21.825 27.615 22.335 27 22.335C26.385 22.335 25.875 21.825 25.875 21.21V14.79C25.875 14.175 26.385 13.665 27 13.665C27.615 13.665 28.125 14.175 28.125 14.79V21.21Z" fill="white"/>
</svg>
