<svg width="46" height="46" viewBox="0 0 46 46" fill="none" xmlns="http://www.w3.org/2000/svg">
<path d="M4.39188 36.667C7.24484 42.0616 12.9416 44 23 44C36.8983 44 42.4692 40.2991 43.7166 28.8931M4.39188 36.667C2.68989 33.4486 2 29.0006 2 23C2 6.94118 6.94118 2 23 2C39.0588 2 44 6.94118 44 23C44 25.1605 43.9106 27.12 43.7166 28.8931M4.39188 36.667L12.0943 28.9645C14.024 27.035 17.1525 27.035 19.0821 28.9645L19.5061 29.3884C21.4356 31.318 24.5644 31.318 26.4939 29.3884L31.859 24.0233C33.7886 22.0938 36.9173 22.0938 38.8468 24.0233L43.7166 28.8931M19.766 15.2078C19.766 17.7253 17.7228 19.7685 15.2053 19.7685C12.6902 19.7685 10.6471 17.7253 10.6471 15.2078C10.6471 12.6902 12.6902 10.6471 15.2053 10.6471C17.7228 10.6471 19.766 12.6902 19.766 15.2078Z" stroke="url(#paint0_linear_852_9918)" stroke-width="3" stroke-linecap="round" stroke-linejoin="round"/>
<defs>
<linearGradient id="paint0_linear_852_9918" x1="9.5" y1="7" x2="48" y2="57.5" gradientUnits="userSpaceOnUse">
<stop stop-color="#FD2AA5"/>
<stop offset="1" stop-color="#E0A15A"/>
</linearGradient>
</defs>
</svg>
