<svg width="97" height="79" viewBox="0 0 97 79" fill="none" xmlns="http://www.w3.org/2000/svg">
<path d="M93.3296 39.5595L74.0199 55.6509H22.5274L3.21777 39.5595L22.5274 23.4681H74.0199L93.3296 39.5595Z" fill="white"/>
<path d="M24.5867 25.9423L8.24588 39.5596L24.5867 53.177C24.9208 53.4444 25.1982 53.7758 25.4026 54.1517C25.6071 54.5277 25.7345 54.9406 25.7775 55.3664C25.8204 55.7922 25.778 56.2222 25.6528 56.6314C25.5275 57.0406 25.3219 57.4207 25.048 57.7495C24.774 58.0783 24.4373 58.3491 24.0574 58.5462C23.6775 58.7432 23.2622 58.8625 22.8356 58.8971C22.4091 58.9317 21.98 58.8809 21.5733 58.7477C21.1666 58.6144 20.7906 58.4014 20.4673 58.1211L1.15762 42.0297C0.795286 41.7276 0.503781 41.3497 0.303737 40.9225C0.103693 40.4953 0 40.0293 0 39.5576C0 39.0859 0.103693 38.62 0.303737 38.1928C0.503781 37.7656 0.795286 37.3876 1.15762 37.0856L20.4673 20.9942C21.1234 20.4479 21.9697 20.1847 22.82 20.2624C23.6702 20.3401 24.4548 20.7524 25.001 21.4085C25.5473 22.0647 25.8105 22.911 25.7328 23.7612C25.6551 24.6115 25.2428 25.396 24.5867 25.9423ZM95.3888 37.0856L76.0792 20.9942C75.7543 20.7237 75.3793 20.5199 74.9756 20.3943C74.5719 20.2687 74.1475 20.2239 73.7265 20.2624C73.3055 20.3009 72.8962 20.4219 72.5219 20.6186C72.1477 20.8152 71.8159 21.0837 71.5454 21.4085C70.9991 22.0647 70.7359 22.911 70.8136 23.7612C70.8913 24.6115 71.3036 25.396 71.9598 25.9423L88.3006 39.5596L71.9598 53.177C71.6257 53.4444 71.3483 53.7758 71.1438 54.1517C70.9394 54.5277 70.8119 54.9406 70.769 55.3664C70.726 55.7922 70.7684 56.2222 70.8937 56.6314C71.0189 57.0406 71.2246 57.4207 71.4985 57.7495C71.7724 58.0783 72.1092 58.3491 72.489 58.5462C72.8689 58.7432 73.2843 58.8625 73.7108 58.8971C74.1373 58.9317 74.5665 58.8809 74.9732 58.7477C75.3798 58.6144 75.7558 58.4014 76.0792 58.1211L95.3888 42.0297C95.7512 41.7276 96.0427 41.3497 96.2427 40.9225C96.4427 40.4953 96.5464 40.0293 96.5464 39.5576C96.5464 39.0859 96.4427 38.62 96.2427 38.1928C96.0427 37.7656 95.7512 37.3876 95.3888 37.0856ZM62.2446 1.13339C61.8473 0.989155 61.4255 0.924584 61.0033 0.943364C60.5811 0.962144 60.1667 1.06391 59.7838 1.24284C59.4009 1.42178 59.057 1.67438 58.7717 1.98622C58.4864 2.29807 58.2654 2.66305 58.1212 3.06033L32.3749 73.8625C32.2301 74.26 32.165 74.6822 32.1835 75.1048C32.202 75.5275 32.3036 75.9424 32.4826 76.3258C32.6615 76.7091 32.9144 77.0534 33.2265 77.339C33.5387 77.6245 33.9041 77.8457 34.3019 77.9899C34.6545 78.1152 35.0259 78.1792 35.4001 78.179C36.061 78.179 36.7059 77.9755 37.2472 77.5962C37.7884 77.2169 38.1997 76.6802 38.4253 76.059L64.1715 5.25681C64.3158 4.85954 64.3803 4.43775 64.3615 4.01552C64.3428 3.59329 64.241 3.1789 64.0621 2.796C63.8831 2.4131 63.6305 2.0692 63.3187 1.78393C63.0068 1.49866 62.6419 1.2776 62.2446 1.13339Z" fill="#2661FF"/>
</svg>
