<svg width="25" height="36" viewBox="0 0 25 36" fill="none" xmlns="http://www.w3.org/2000/svg">
<path fill-rule="evenodd" clip-rule="evenodd" d="M8.78391 4.40488e-06C8.82284 4.40488e-06 8.86191 4.40488e-06 8.9011 4.40488e-06H16.1391C17.7173 -8.55951e-05 19.077 -0.000157633 20.166 0.147874C21.3329 0.306508 22.4516 0.66424 23.3588 1.58163C24.2662 2.49903 24.6199 3.63006 24.7769 4.80998C24.9232 5.91097 24.9232 7.28584 24.9231 8.88151V27.1184C24.9232 28.7141 24.9232 30.089 24.7769 31.19C24.6199 32.3699 24.2662 33.501 23.3588 34.4183C22.4516 35.3358 21.3329 35.6934 20.166 35.8522C19.077 36.0002 17.7173 36.0002 16.1391 36H8.78396C7.2058 36.0002 5.84603 36.0002 4.75712 35.8522C3.59017 35.6934 2.47157 35.3358 1.56425 34.4183C0.656941 33.501 0.30314 32.3699 0.146249 31.19C-0.000155901 30.089 -8.46544e-05 28.7141 4.35648e-06 27.1184V9C4.35648e-06 8.96038 4.35648e-06 8.92087 4.35648e-06 8.88151C-8.46544e-05 7.28584 -0.000155901 5.91097 0.146249 4.80998C0.30314 3.63006 0.656941 2.49903 1.56425 1.58163C2.47157 0.66424 3.59017 0.306508 4.75712 0.147874C5.84601 -0.000157633 7.20578 -8.55951e-05 8.78391 4.40488e-06ZM9.79121 28.8C9.79121 27.8058 10.5882 27 11.5714 27H13.3516C14.3349 27 15.1319 27.8058 15.1319 28.8C15.1319 29.7941 14.3349 30.6 13.3516 30.6H11.5714C10.5882 30.6 9.79121 29.7941 9.79121 28.8Z" fill="white"/>
</svg>
