<svg width="28" height="22" viewBox="0 0 28 22" fill="none" xmlns="http://www.w3.org/2000/svg">
<path d="M26.6739 5.28571C26.6739 5.28571 20.9293 12.4286 13.8579 12.4286C6.78644 12.4286 1.04186 5.28571 1.04186 5.28571M5.57143 21H22.1429C23.743 21 24.5431 21 25.1543 20.6886C25.6919 20.4147 26.129 19.9776 26.4029 19.44C26.7143 18.8289 26.7143 18.0287 26.7143 16.4286V5.57143C26.7143 3.97129 26.7143 3.1712 26.4029 2.56003C26.129 2.02241 25.6919 1.58533 25.1543 1.31141C24.5431 1 23.743 1 22.1429 1H5.57143C3.97129 1 3.1712 1 2.56003 1.31141C2.02241 1.58533 1.58533 2.02241 1.31141 2.56003C1 3.1712 1 3.97127 1 5.57143V16.4286C1 18.0287 1 18.8289 1.31141 19.44C1.58533 19.9776 2.02241 20.4147 2.56003 20.6886C3.1712 21 3.97127 21 5.57143 21Z" stroke="white" stroke-width="2" stroke-linecap="round" stroke-linejoin="round"/>
</svg>
