<svg width="75" height="83" viewBox="0 0 75 83" fill="none" xmlns="http://www.w3.org/2000/svg">
<path d="M13.833 25.6667C13.833 12.5959 24.4289 2 37.4997 2C50.5704 2 61.1663 12.5959 61.1663 25.6667V45.3889C61.1663 58.4596 50.5704 69.0556 37.4997 69.0556C24.4289 69.0556 13.833 58.4596 13.833 45.3889V25.6667Z" stroke="white" stroke-width="4"/>
<path d="M29.6113 19.75C29.6113 19.75 31.4759 17.7778 37.5002 17.7778C43.5246 17.7778 45.3891 19.75 45.3891 19.75" stroke="white" stroke-width="4" stroke-linecap="round"/>
<path d="M29.6113 31.5833C29.6113 31.5833 31.4759 29.6111 37.5002 29.6111C43.5246 29.6111 45.3891 31.5833 45.3891 31.5833" stroke="white" stroke-width="4" stroke-linecap="round"/>
<path d="M73 37.5V45.3889C73 64.9951 57.1063 80.8889 37.5 80.8889C17.8939 80.8889 2 64.9951 2 45.3889V37.5" stroke="white" stroke-width="4" stroke-linecap="round"/>
</svg>
