<svg width="38" height="38" viewBox="0 0 38 38" fill="none" xmlns="http://www.w3.org/2000/svg">
<g clip-path="url(#clip0_852_4028)">
<path d="M23.339 12.1694C21.943 12.4684 20.4898 12.6401 18.9999 12.6401C17.51 12.6401 16.0568 12.4684 14.6607 12.1694C14.4524 13.7515 14.3093 15.4973 14.2568 17.4101H23.7429C23.6905 15.4973 23.5474 13.7515 23.339 12.1694Z" fill="#1B1B1B"/>
<path d="M18.9996 28.54C17.7085 28.54 16.4397 28.7133 15.209 29.017C16.2711 33.8968 17.9533 36.4901 18.9996 36.4901C20.0474 36.4901 21.7296 33.8968 22.7902 29.017C21.5595 28.7133 20.2923 28.54 18.9996 28.54Z" fill="#1B1B1B"/>
<path d="M19 9.45984C20.3149 9.45984 21.5885 9.30399 22.8017 9.03531C21.7412 4.12218 20.0509 1.50977 19 1.50977C17.949 1.50977 16.2588 4.12218 15.1982 9.03687C16.4114 9.30399 17.685 9.45984 19 9.45984Z" fill="#1B1B1B"/>
<path d="M18.9998 25.3601C20.4738 25.3601 21.9223 25.5494 23.3326 25.8785C23.544 24.2837 23.6888 22.522 23.7412 20.5901H14.2568C14.3093 22.522 14.454 24.2837 14.6671 25.8785C16.0758 25.5494 17.5243 25.3601 18.9998 25.3601Z" fill="#1B1B1B"/>
<path d="M26.3926 26.8691C28.4707 27.7483 30.401 28.987 32.0848 30.577C32.1245 30.6136 32.1611 30.6517 32.1945 30.6914L33.1326 31.7742C35.8611 28.758 37.6435 24.8783 37.9996 20.5901H26.9236C26.8648 22.735 26.6867 24.8577 26.3926 26.8691Z" fill="#1B1B1B"/>
<path d="M11.5864 11.2566C9.29999 10.3471 7.30925 9.01948 5.81944 7.34997L4.8591 6.23535C2.13377 9.25158 0.356187 13.1265 0 17.41H11.076C11.1333 15.3112 11.3034 13.2314 11.5864 11.2566Z" fill="#1B1B1B"/>
<path d="M25.8003 30.0891C25.0657 33.3184 23.9781 36.0278 22.5566 37.7355C25.6349 37.152 28.4476 35.8275 30.8136 33.9544L29.8437 32.835C28.6305 31.6997 27.263 30.7871 25.8003 30.0891Z" fill="#1B1B1B"/>
<path d="M26.9241 17.4102H38.0002C37.644 13.1267 35.8647 9.25189 33.1411 6.2356L32.1966 7.33114C30.6988 9.01019 28.7017 10.3442 26.4121 11.2553C26.6952 13.23 26.8653 15.3098 26.9241 17.4102Z" fill="#1B1B1B"/>
<path d="M8.09792 32.8877C8.03434 32.9497 7.96592 33.0037 7.89281 33.0514L6.88477 33.7288C9.30951 35.7259 12.2367 37.1283 15.4422 37.7356C14.0207 36.0279 12.9332 33.3186 12.1986 30.0908C10.7135 30.8 9.32538 31.7301 8.09792 32.8877Z" fill="#1B1B1B"/>
<path d="M11.076 20.5906H0C0.343442 24.7246 2.00818 28.4818 4.57289 31.4504L6.01188 30.4836C7.67185 28.9381 9.57032 27.7329 11.6071 26.8711C11.3129 24.8581 11.1348 22.7355 11.076 20.5906Z" fill="#1B1B1B"/>
<path d="M12.169 8.04408C12.9052 4.75753 14.0023 1.99568 15.4428 0.26416C12.3598 0.849309 9.54387 2.17694 7.1748 4.05477L8.2099 5.25361C9.2371 6.40475 10.6029 7.33968 12.169 8.04408Z" fill="#1B1B1B"/>
<path d="M29.8071 5.23394L30.8247 4.05418C28.4572 2.17635 25.6397 0.84872 22.5566 0.265137C23.9972 1.99509 25.0943 4.75694 25.8304 8.04185C27.3999 7.33432 28.7704 6.39463 29.8071 5.23394Z" fill="#1B1B1B"/>
</g>
<defs>
<clipPath id="clip0_852_4028">
<rect width="38" height="38" fill="white"/>
</clipPath>
</defs>
</svg>
