<svg width="26" height="26" viewBox="0 0 26 26" fill="none" xmlns="http://www.w3.org/2000/svg">
<path d="M16.3054 5.41665C17.3635 5.62309 18.3359 6.14059 19.0983 6.90291C19.8606 7.66523 20.3781 8.63768 20.5845 9.69581M16.3054 1.08331C18.5037 1.32754 20.5537 2.312 22.1188 3.87507C23.6838 5.43814 24.6709 7.48691 24.9179 9.68498M23.8345 18.33V21.58C23.8357 21.8817 23.7739 22.1803 23.6531 22.4568C23.5322 22.7332 23.3549 22.9814 23.1326 23.1853C22.9103 23.3893 22.6478 23.5446 22.362 23.6412C22.0762 23.7379 21.7733 23.7738 21.4729 23.7466C18.1393 23.3844 14.9371 22.2453 12.1237 20.4208C9.50617 18.7575 7.28697 16.5383 5.62369 13.9208C3.79283 11.0946 2.65345 7.87689 2.29786 4.52831C2.27078 4.22874 2.30639 3.9268 2.4024 3.64174C2.49841 3.35668 2.65272 3.09473 2.85552 2.87257C3.05831 2.65041 3.30514 2.47291 3.5803 2.35138C3.85545 2.22984 4.15289 2.16693 4.45369 2.16665H7.70369C8.22944 2.16147 8.73913 2.34765 9.13776 2.69047C9.5364 3.0333 9.79677 3.50938 9.87036 4.02998C10.0075 5.07005 10.2619 6.09127 10.6287 7.07415C10.7744 7.4619 10.806 7.8833 10.7196 8.28843C10.6332 8.69356 10.4325 9.06543 10.1412 9.35998L8.76536 10.7358C10.3075 13.448 12.5532 15.6936 15.2654 17.2358L16.6412 15.86C16.9357 15.5687 17.3076 15.368 17.7127 15.2816C18.1179 15.1952 18.5393 15.2267 18.927 15.3725C19.9099 15.7392 20.9311 15.9936 21.9712 16.1308C22.4974 16.2051 22.978 16.4701 23.3216 16.8756C23.6652 17.2811 23.8477 17.7987 23.8345 18.33Z" stroke="white" stroke-width="2" stroke-linecap="round" stroke-linejoin="round"/>
</svg>
