<svg width="42" height="42" viewBox="0 0 42 42" fill="none" xmlns="http://www.w3.org/2000/svg">
<circle cx="21" cy="21" r="19.5" fill="#E5EEFF" stroke="#014FED" stroke-width="3"/>
<path d="M17.6478 27.8546L17.6477 27.8547L17.6543 27.8583C18.2962 28.2107 19.0464 28.4425 19.8949 28.5641V29.52C19.8949 29.7844 19.9932 30.0254 20.1814 30.2136C20.3695 30.4017 20.6105 30.5 20.8749 30.5H22.0949C22.3593 30.5 22.6003 30.4017 22.7885 30.2136C22.9766 30.0254 23.0749 29.7844 23.0749 29.52V28.5762C23.876 28.448 24.599 28.227 25.2385 27.9072L25.2386 27.9073L25.2453 27.9037C26.0038 27.5099 26.6065 26.9888 27.0332 26.3339C27.4785 25.6577 27.6949 24.8804 27.6949 24.02C27.6949 23.1637 27.5065 22.4132 27.0918 21.8039C26.6946 21.1873 26.0853 20.7078 25.3066 20.347C24.557 19.9936 23.6019 19.6913 22.453 19.4341C21.6534 19.2241 21.0224 19.0302 20.554 18.8532C20.1141 18.6818 19.8522 18.5068 19.7131 18.3528C19.588 18.2018 19.5149 18.0084 19.5149 17.74C19.5149 17.3307 19.657 17.0894 19.9171 16.9258C20.2536 16.7228 20.7334 16.6 21.3949 16.6C22.0354 16.6 22.5031 16.7331 22.8376 16.956C23.1943 17.1938 23.3423 17.4379 23.3813 17.6796L23.392 17.7458L23.4197 17.8069C23.5172 18.0213 23.6713 18.2272 23.9113 18.3472L24.1349 17.9L23.9113 18.3472C24.0879 18.4355 24.2778 18.48 24.4749 18.48H26.3349C26.5707 18.48 26.8297 18.4052 27.0166 18.183C27.1606 18.014 27.2549 17.8028 27.2549 17.56H27.2551L27.2547 17.5461C27.2384 16.9574 27.0344 16.3786 26.6792 15.8154C26.3136 15.2223 25.7901 14.713 25.1281 14.2812C24.5449 13.9009 23.857 13.637 23.0749 13.4795V12.48C23.0749 12.2156 22.9766 11.9746 22.7885 11.7864L22.4358 12.1391L22.7885 11.7864C22.6003 11.5983 22.3593 11.5 22.0949 11.5H20.8749C20.6105 11.5 20.3695 11.5983 20.1814 11.7864L20.534 12.1391L20.1814 11.7864C19.9932 11.9746 19.8949 12.2156 19.8949 12.48V13.4285C18.6959 13.6381 17.702 14.0928 16.9479 14.8201C16.1046 15.6332 15.6749 16.636 15.6749 17.8C15.6749 18.6678 15.8558 19.4287 16.254 20.0498L16.2539 20.0499L16.2589 20.0573C16.6626 20.6628 17.2483 21.1484 17.9878 21.5255L17.9878 21.5255L17.9948 21.529C18.7161 21.8825 19.5857 22.1799 20.5963 22.4257C21.4529 22.6366 22.1318 22.8378 22.6394 23.0282L22.6393 23.0283L22.6497 23.0319C23.1535 23.2082 23.4585 23.3907 23.6214 23.5536L23.6312 23.5634L23.6415 23.5726C23.7737 23.6909 23.8549 23.8539 23.8549 24.12C23.8549 24.495 23.7085 24.777 23.3722 25.0076C23.0288 25.2431 22.4369 25.4 21.5149 25.4C20.9553 25.4 20.5233 25.3248 20.2006 25.1958C19.8549 25.0575 19.6119 24.8967 19.4478 24.7265C19.2691 24.5122 19.1522 24.3121 19.0841 24.1271L19.0745 24.1012L19.0621 24.0764C18.9769 23.906 18.8567 23.7597 18.7025 23.6454C18.4975 23.4783 18.2507 23.42 18.0149 23.42H16.2349C15.9924 23.42 15.7711 23.5048 15.5895 23.6604L15.5749 23.6729L15.5614 23.6864C15.3815 23.8663 15.2949 24.0963 15.2949 24.34V24.3514L15.2954 24.3627C15.3265 25.0451 15.5442 25.6953 15.9327 26.3078L15.9326 26.3078L15.9357 26.3125C16.3348 26.9265 16.914 27.4374 17.6478 27.8546Z" fill="#014FED" stroke="#014FED"/>
</svg>
