<svg width="19" height="21" viewBox="0 0 19 21" fill="none" xmlns="http://www.w3.org/2000/svg">
<path d="M15.4 9.36182H2.8C1.80589 9.36182 1 10.1677 1 11.1618V17.4618C1 18.4559 1.80589 19.2618 2.8 19.2618H15.4C16.3941 19.2618 17.2 18.4559 17.2 17.4618V11.1618C17.2 10.1677 16.3941 9.36182 15.4 9.36182Z" stroke="white" stroke-width="2" stroke-linecap="round" stroke-linejoin="round"/>
<path d="M4.59979 9.36184V5.76184C4.59979 4.56837 5.0739 3.42377 5.91781 2.57986C6.76173 1.73595 7.90632 1.26184 9.09979 1.26184C10.2933 1.26184 11.4379 1.73595 12.2818 2.57986C13.1257 3.42377 13.5998 4.56837 13.5998 5.76184V9.36184" stroke="white" stroke-width="2" stroke-linecap="round" stroke-linejoin="round"/>
</svg>
