<svg width="45" height="45" viewBox="0 0 45 45" fill="none" xmlns="http://www.w3.org/2000/svg">
<path d="M32.9576 8.3091L29.2076 6.34119C25.9158 4.61374 24.27 3.75 22.4994 3.75C20.7288 3.75 19.083 4.61374 15.7912 6.34119L12.0412 8.3091C8.71544 10.0544 6.76047 11.0803 5.54883 12.4525L22.4994 20.9278L39.45 12.4525C38.2383 11.0803 36.2835 10.0544 32.9576 8.3091Z" fill="white"/>
<path d="M40.7782 14.9332L23.9062 23.3691V41.07C25.2523 40.7348 26.784 39.9309 29.2082 38.6588L32.9582 36.6909C36.9926 34.5737 39.0097 33.5153 40.1299 31.6131C41.25 29.7109 41.25 27.3437 41.25 22.6097V22.3903C41.25 18.8417 41.25 16.623 40.7782 14.9332Z" fill="white"/>
<path d="M21.0938 41.07V23.3691L4.22183 14.9332C3.75 16.623 3.75 18.8417 3.75 22.3903V22.6097C3.75 27.3437 3.75 29.7109 4.87012 31.6131C5.99023 33.5153 8.00743 34.5737 12.0418 36.691L15.7918 38.6588C18.2161 39.931 19.7477 40.7348 21.0938 41.07Z" fill="white"/>
</svg>
