<svg width="44" height="44" viewBox="0 0 44 44" fill="none" xmlns="http://www.w3.org/2000/svg">
<path fill-rule="evenodd" clip-rule="evenodd" d="M6.35153 6.35161C3.66666 9.03645 3.66666 13.3577 3.66666 22.0001C3.66666 30.6424 3.66666 34.9638 6.35153 37.6485C9.03637 40.3334 13.3576 40.3334 22 40.3334C30.6423 40.3334 34.9637 40.3334 37.6484 37.6485C40.3333 34.9638 40.3333 30.6424 40.3333 22.0001C40.3333 13.3577 40.3333 9.03645 37.6484 6.35161C34.9637 3.66675 30.6423 3.66675 22 3.66675C13.3576 3.66675 9.03637 3.66675 6.35153 6.35161ZM18.2453 11.4584C17.4572 11.4583 16.7204 11.4582 16.1185 11.5481C15.4385 11.6497 14.74 11.8898 14.1816 12.5102C13.6419 13.1099 13.4513 13.8245 13.3687 14.5071C13.2915 15.1452 13.2916 15.9361 13.2917 16.8292V17.8751C13.2917 18.6345 13.9073 19.2501 14.6667 19.2501C15.4261 19.2501 16.0417 18.6345 16.0417 17.8751V16.9075C16.0417 15.9122 16.044 15.2903 16.0988 14.8375C16.1245 14.625 16.1567 14.5026 16.1826 14.4325C16.2046 14.3733 16.2202 14.3559 16.2254 14.3502L16.2269 14.3484C16.2294 14.3454 16.2312 14.3432 16.2478 14.3357C16.2782 14.3217 16.3564 14.2931 16.5248 14.2679C16.899 14.212 17.426 14.2084 18.3333 14.2084H20.625V29.7918H17.4167C16.6573 29.7918 16.0417 30.4074 16.0417 31.1668C16.0417 31.9261 16.6573 32.5418 17.4167 32.5418H27.5C28.2594 32.5418 28.875 31.9261 28.875 31.1668C28.875 30.4074 28.2594 29.7918 27.5 29.7918H23.375V14.2084H25.6667C26.574 14.2084 27.1011 14.212 27.4753 14.2679C27.6436 14.2931 27.7218 14.3217 27.7523 14.3357C27.7688 14.3432 27.7706 14.3454 27.7732 14.3484C27.7785 14.3542 27.7954 14.3733 27.8174 14.4325C27.8434 14.5026 27.8755 14.625 27.9011 14.8375C27.956 15.2903 27.9583 15.9122 27.9583 16.9075V17.8751C27.9583 18.6345 28.574 19.2501 29.3333 19.2501C30.0927 19.2501 30.7083 18.6345 30.7083 17.8751V16.8292C30.7083 15.9361 30.7085 15.1452 30.6313 14.5071C30.5487 13.8245 30.3582 13.1099 29.8184 12.5102C29.26 11.8898 28.5615 11.6497 27.8815 11.5481C27.2796 11.4582 26.5428 11.4583 25.7547 11.4584H18.2453Z" fill="white"/>
</svg>
