<svg width="53" height="53" viewBox="0 0 53 53" fill="none" xmlns="http://www.w3.org/2000/svg">
<circle cx="26.5" cy="26.5" r="26.5" fill="#FCF4C5"/>
<path fill-rule="evenodd" clip-rule="evenodd" d="M25.7605 32.8109L17.1798 23.9992C16.8024 23.58 16.7501 22.966 17.0523 22.4914L19.9108 19.053C20.1441 18.6879 20.5521 18.5176 20.9907 18.5176H32.5039C32.9336 18.5176 33.3339 18.6781 33.5698 19.0331L36.3875 22.2872C36.7025 22.7593 36.6591 23.367 36.283 23.7925L27.673 32.8084C27.1681 33.3787 26.2705 33.3774 25.7605 32.8109ZM33.2523 16H20.2856C19.4084 16 18.5924 16.3929 18.1258 17.1268L14.39 21.9803C13.787 22.9295 13.8915 24.1438 14.6463 24.981L24.8335 35.5589C25.8548 36.6894 27.6475 36.6783 28.6573 35.5377L38.87 24.7183C39.621 23.8698 39.7102 22.6306 39.0867 21.6864L35.3905 17.0913C34.92 16.3775 34.1155 16 33.2523 16Z" fill="#E9C600"/>
</svg>
