<svg width="29" height="40" viewBox="0 0 29 40" fill="none" xmlns="http://www.w3.org/2000/svg">
<path fill-rule="evenodd" clip-rule="evenodd" d="M10.7839 2C10.8228 2 10.8619 2 10.9011 2H18.1391C19.7173 1.99991 21.077 1.99984 22.166 2.14787C23.3329 2.30651 24.4516 2.66424 25.3588 3.58163C26.2662 4.49903 26.6199 5.63006 26.7769 6.80998C26.9232 7.91097 26.9232 9.28584 26.9231 10.8815V29.1184C26.9232 30.7141 26.9232 32.089 26.7769 33.19C26.6199 34.3699 26.2662 35.501 25.3588 36.4183C24.4516 37.3358 23.3329 37.6934 22.166 37.8522C21.077 38.0002 19.7173 38.0002 18.1391 38H10.784C9.2058 38.0002 7.84603 38.0002 6.75712 37.8522C5.59017 37.6934 4.47157 37.3358 3.56425 36.4183C2.65694 35.501 2.30314 34.3699 2.14625 33.19C1.99984 32.089 1.99992 30.7141 2 29.1184V11C2 10.9604 2 10.9209 2 10.8815C1.99992 9.28584 1.99984 7.91097 2.14625 6.80998C2.30314 5.63006 2.65694 4.49903 3.56425 3.58163C4.47157 2.66424 5.59017 2.30651 6.75712 2.14787C7.84601 1.99984 9.20578 1.99991 10.7839 2ZM11.7912 30.8C11.7912 29.8058 12.5882 29 13.5714 29H15.3516C16.3349 29 17.1319 29.8058 17.1319 30.8C17.1319 31.7941 16.3349 32.6 15.3516 32.6H13.5714C12.5882 32.6 11.7912 31.7941 11.7912 30.8Z" fill="white" stroke="#014FED" stroke-width="3"/>
</svg>
