<svg width="70" height="77" viewBox="0 0 70 77" fill="none" xmlns="http://www.w3.org/2000/svg">
<path d="M1 61H0.25H1ZM1 16H1.75H1ZM16 1V0.25V1ZM53.5 1V0.250002V1ZM68.5 16H67.75H68.5ZM68.5 39.7868H69.25H68.5ZM32.2868 76V75.25V76ZM16 76V76.75V76ZM64.1066 50.3934L63.5763 49.8631L64.1066 50.3934ZM42.8934 71.6066L43.4237 72.1369V72.1369L42.8934 71.6066ZM38.5 61H37.75H38.5ZM53.5 46V45.25V46ZM22.9697 37.9697C22.6768 38.2626 22.6768 38.7374 22.9697 39.0303C23.2626 39.3232 23.7374 39.3232 24.0303 39.0303L22.9697 37.9697ZM29.6553 33.4053C29.9482 33.1124 29.9482 32.6376 29.6553 32.3447C29.3624 32.0518 28.8876 32.0518 28.5947 32.3447L29.6553 33.4053ZM1.75 61L1.75 16H0.250002L0.25 61H1.75ZM16 1.75L53.5 1.75V0.250002L16 0.25V1.75ZM67.75 16V39.7868H69.25V16H67.75ZM32.2868 75.25H16V76.75H32.2868V75.25ZM63.5763 49.8631L42.3631 71.0763L43.4237 72.1369L64.6369 50.9237L63.5763 49.8631ZM32.2868 76.75C36.464 76.75 40.47 75.0906 43.4237 72.1369L42.3631 71.0763C39.6907 73.7487 36.0661 75.25 32.2868 75.25V76.75ZM67.75 39.7868C67.75 43.5661 66.2487 47.1907 63.5763 49.8631L64.6369 50.9237C67.5906 47.97 69.25 43.964 69.25 39.7868H67.75ZM1.75 16C1.75 8.12994 8.12994 1.75 16 1.75V0.25C7.30152 0.25 0.250002 7.30151 0.250002 16H1.75ZM0.25 61C0.25 69.6985 7.30151 76.75 16 76.75V75.25C8.12994 75.25 1.75 68.8701 1.75 61H0.25ZM53.5 1.75C61.3701 1.75 67.75 8.12994 67.75 16H69.25C69.25 7.30152 62.1985 0.250002 53.5 0.250002V1.75ZM39.25 76V61H37.75V76H39.25ZM53.5 46.75L68.5 46.75V45.25L53.5 45.25V46.75ZM39.25 61C39.25 53.1299 45.6299 46.75 53.5 46.75V45.25C44.8015 45.25 37.75 52.3015 37.75 61H39.25ZM45.25 25.375C45.25 30.1385 41.3885 34 36.625 34V35.5C42.2169 35.5 46.75 30.9669 46.75 25.375H45.25ZM36.625 34C31.8615 34 28 30.1385 28 25.375H26.5C26.5 30.9669 31.0331 35.5 36.625 35.5V34ZM28 25.375C28 20.6115 31.8615 16.75 36.625 16.75V15.25C31.0331 15.25 26.5 19.7831 26.5 25.375H28ZM36.625 16.75C41.3885 16.75 45.25 20.6115 45.25 25.375H46.75C46.75 19.7831 42.2169 15.25 36.625 15.25V16.75ZM24.0303 39.0303L29.6553 33.4053L28.5947 32.3447L22.9697 37.9697L24.0303 39.0303Z" fill="#28303F"/>
</svg>
