<svg width="37" height="34" viewBox="0 0 37 34" fill="none" xmlns="http://www.w3.org/2000/svg">
<path fill-rule="evenodd" clip-rule="evenodd" d="M35.8541 11.0958L30.2251 2.19504C29.6572 1.29734 28.6605 0.752862 27.589 0.754981H9.32193C8.2504 0.752862 7.25368 1.29734 6.68577 2.19504L1.0568 11.0958C0.340567 12.2318 0.45358 13.6957 1.33592 14.7113L17.2769 33.095C17.5715 33.4353 18.0021 33.6313 18.4554 33.6313C18.9087 33.6313 19.3393 33.4353 19.634 33.095L35.575 14.7113C36.4573 13.6957 36.5703 12.2318 35.8541 11.0958ZM19.8211 30.6396C19.4848 30.9078 19.0522 31.0351 18.6188 30.9934C18.1855 30.9516 17.7871 30.7444 17.5117 30.4173L10.2233 21.7646C9.64888 21.085 9.75154 20.0828 10.4526 19.526C11.1536 18.9692 12.1876 19.0687 12.762 19.7483L20.0504 28.401C20.3375 28.7288 20.4752 29.1554 20.4319 29.5833C20.3887 30.0112 20.1683 30.4038 19.8211 30.6714V30.6396Z" fill="#1B1B1B"/>
</svg>
