<svg width="40" height="40" viewBox="0 0 40 40" fill="none" xmlns="http://www.w3.org/2000/svg">
<circle cx="19.9996" cy="20.0001" r="19.1813" fill="white"/>
<path fill-rule="evenodd" clip-rule="evenodd" d="M15.1961 34.326C15.5784 35.0427 15.9613 35.6884 16.3273 36.2607C12.4388 35.3862 9.06458 33.1527 6.72973 30.0851C8.27069 29.2173 10.2443 28.3178 12.617 27.6596C13.2914 30.3044 14.2428 32.5384 15.1961 34.326ZM18.1373 32.7573C17.3091 31.2047 16.4791 29.2656 15.8811 26.968C17.1684 26.7769 18.5427 26.6667 20.0002 26.6667C21.4576 26.6667 22.8318 26.7769 24.1189 26.9678C23.5209 29.2656 22.6909 31.2047 21.8627 32.7573C21.1987 34.0024 20.5371 34.9964 20 35.7238C19.4629 34.9964 18.8013 34.0024 18.1373 32.7573ZM15 20C15 21.298 15.0873 22.53 15.2413 23.6931C16.7264 23.4653 18.3142 23.3333 20.0002 23.3333C21.686 23.3333 23.2738 23.4651 24.7587 23.6931C24.9127 22.5298 25 21.298 25 20C25 18.702 24.9127 17.4702 24.7587 16.3069C23.2738 16.5347 21.686 16.6667 20.0002 16.6667C18.3142 16.6667 16.7264 16.5347 15.2413 16.3069C15.0873 17.47 15 18.702 15 20ZM11.9708 15.6196C11.7773 16.9951 11.6667 18.4564 11.6667 20C11.6667 21.5436 11.7773 23.0049 11.9708 24.3804C9.14084 25.1402 6.79738 26.2116 4.98498 27.2424C3.92662 25.0524 3.33333 22.5956 3.33333 20C3.33333 17.4044 3.92662 14.9476 4.98496 12.7575C6.79716 13.7883 9.14067 14.8597 11.9708 15.6196ZM15.8811 13.0321C17.1684 13.2232 18.5427 13.3333 20.0002 13.3333C21.4576 13.3333 22.8318 13.2232 24.1189 13.0322C23.5209 10.7346 22.6909 8.7954 21.8627 7.24267C21.1987 5.99764 20.5371 5.00347 20 4.27627C19.4629 5.00347 18.8013 5.99764 18.1373 7.24262C17.3091 8.79536 16.4791 10.7345 15.8811 13.0321ZM28.0291 15.6198C28.2227 16.9953 28.3333 18.4567 28.3333 20C28.3333 21.5436 28.2227 23.0047 28.0291 24.3802C30.8591 25.1402 33.2027 26.2116 35.0151 27.2424C36.0733 25.0522 36.6667 22.5953 36.6667 20C36.6667 17.4047 36.0733 14.9477 35.0151 12.7576C33.2029 13.7884 30.8593 14.8598 28.0291 15.6198ZM33.2702 9.91507C31.7291 10.7829 29.7556 11.6823 27.3831 12.3406C26.7087 9.69564 25.7573 7.46153 24.804 5.67404C24.4216 4.95727 24.0387 4.31167 23.6727 3.73933C27.5613 4.61384 30.9356 6.84747 33.2702 9.91507ZM12.617 12.3406C10.2445 11.6822 8.27089 10.7828 6.72976 9.91496C9.06458 6.84742 12.4388 4.61384 16.3271 3.73933C15.9613 4.31167 15.5784 4.95724 15.1961 5.674C14.2428 7.46149 13.2914 9.69558 12.617 12.3406ZM27.3831 27.6593C26.7087 30.3044 25.7573 32.5384 24.804 34.326C24.4216 35.0427 24.0387 35.6884 23.6727 36.2607C27.5613 35.3862 30.9356 33.1524 33.2704 30.0849C31.7293 29.2171 29.7558 28.3178 27.3831 27.6593ZM20 40C31.0458 40 40 31.0458 40 20C40 8.95431 31.0458 0 20 0C8.95431 0 0 8.95431 0 20C0 31.0458 8.95431 40 20 40Z" fill="#014FED"/>
</svg>
