<svg width="53" height="42" viewBox="0 0 53 42" fill="none" xmlns="http://www.w3.org/2000/svg">
<path d="M53 22L42.0714 31H12.9286L2 22L12.9286 13H42.0714L53 22Z" fill="white"/>
<path d="M13.3697 13.5954L4.48394 21L13.3697 28.4047C13.5514 28.5501 13.7022 28.7303 13.8134 28.9347C13.9246 29.1392 13.9939 29.3637 14.0173 29.5952C14.0406 29.8268 14.0176 30.0606 13.9495 30.2831C13.8813 30.5056 13.7695 30.7123 13.6206 30.8911C13.4716 31.0699 13.2885 31.2171 13.0819 31.3243C12.8754 31.4314 12.6495 31.4963 12.4176 31.5151C12.1856 31.534 11.9523 31.5063 11.7311 31.4339C11.51 31.3614 11.3055 31.2456 11.1297 31.0931L0.629488 22.3432C0.432461 22.1789 0.273946 21.9734 0.165166 21.7411C0.056386 21.5088 0 21.2554 0 20.9989C0 20.7424 0.056386 20.4891 0.165166 20.2568C0.273946 20.0245 0.432461 19.819 0.629488 19.6547L11.1297 10.9047C11.4865 10.6077 11.9467 10.4646 12.409 10.5068C12.8714 10.5491 13.298 10.7732 13.5951 11.13C13.8921 11.4868 14.0352 11.947 13.993 12.4094C13.9507 12.8717 13.7265 13.2983 13.3697 13.5954ZM51.8705 19.6547L41.3703 10.9047C41.1936 10.7576 40.9897 10.6468 40.7702 10.5785C40.5507 10.5103 40.3199 10.4859 40.091 10.5068C39.862 10.5277 39.6395 10.5935 39.436 10.7005C39.2325 10.8074 39.052 10.9534 38.9049 11.13C38.6079 11.4868 38.4647 11.947 38.507 12.4094C38.5493 12.8717 38.7734 13.2983 39.1303 13.5954L48.0161 21L39.1303 28.4047C38.9486 28.5501 38.7978 28.7303 38.6866 28.9347C38.5754 29.1392 38.5061 29.3637 38.4827 29.5952C38.4594 29.8268 38.4824 30.0606 38.5505 30.2831C38.6187 30.5056 38.7305 30.7123 38.8794 30.8911C39.0284 31.0699 39.2115 31.2171 39.4181 31.3243C39.6246 31.4314 39.8505 31.4963 40.0824 31.5151C40.3144 31.534 40.5477 31.5063 40.7689 31.4339C40.99 31.3614 41.1945 31.2456 41.3703 31.0931L51.8705 22.3432C52.0675 22.1789 52.2261 21.9734 52.3348 21.7411C52.4436 21.5088 52.5 21.2554 52.5 20.9989C52.5 20.7424 52.4436 20.4891 52.3348 20.2568C52.2261 20.0245 52.0675 19.819 51.8705 19.6547ZM33.8473 0.105058C33.6313 0.0266279 33.402 -0.00848341 33.1724 0.00172855C32.9428 0.0119405 32.7174 0.0672761 32.5092 0.164575C32.301 0.261874 32.114 0.399231 31.9589 0.568803C31.8037 0.738375 31.6835 0.936841 31.6051 1.15287L17.6048 39.6528C17.5261 39.869 17.4907 40.0985 17.5007 40.3284C17.5108 40.5582 17.566 40.7838 17.6634 40.9923C17.7607 41.2007 17.8982 41.3879 18.0679 41.5432C18.2377 41.6985 18.4364 41.8188 18.6527 41.8972C18.8444 41.9653 19.0464 42.0001 19.2499 42C19.6093 42 19.9599 41.8894 20.2543 41.6831C20.5486 41.4769 20.7722 41.185 20.8949 40.8472L34.8952 2.34724C34.9736 2.13122 35.0087 1.90186 34.9985 1.67227C34.9883 1.44267 34.933 1.21734 34.8357 1.00913C34.7384 0.800926 34.601 0.613922 34.4314 0.4588C34.2618 0.303678 34.0634 0.183476 33.8473 0.105058Z" fill="#2661FF"/>
</svg>
