<svg width="38" height="38" viewBox="0 0 38 38" fill="none" xmlns="http://www.w3.org/2000/svg">
<path fill-rule="evenodd" clip-rule="evenodd" d="M3.35185 3.35161C0.666992 6.03645 0.666992 10.3577 0.666992 19.0001C0.666992 27.6424 0.666992 31.9638 3.35185 34.6485C6.0367 37.3334 10.3579 37.3334 19.0003 37.3334C27.6427 37.3334 31.964 37.3334 34.6488 34.6485C37.3337 31.9638 37.3337 27.6424 37.3337 19.0001C37.3337 10.3577 37.3337 6.03645 34.6488 3.35161C31.964 0.666748 27.6427 0.666748 19.0003 0.666748C10.3579 0.666748 6.0367 0.666748 3.35185 3.35161ZM15.2456 8.45842C14.4575 8.45829 13.7208 8.45816 13.1188 8.54809C12.4389 8.64967 11.7403 8.8898 11.1819 9.51022C10.6422 10.1099 10.4517 10.8245 10.3691 11.5071C10.2919 12.1452 10.2919 12.9361 10.292 13.8292V14.8751C10.292 15.6345 10.9076 16.2501 11.667 16.2501C12.4264 16.2501 13.042 15.6345 13.042 14.8751V13.9075C13.042 12.9122 13.0444 12.2903 13.0992 11.8375C13.1249 11.625 13.157 11.5026 13.183 11.4325C13.2049 11.3733 13.2205 11.3559 13.2257 11.3502L13.2272 11.3484C13.2297 11.3454 13.2316 11.3432 13.2481 11.3357C13.2786 11.3217 13.3567 11.2931 13.5252 11.2679C13.8994 11.212 14.4264 11.2084 15.3337 11.2084H17.6253V26.7918H14.417C13.6576 26.7918 13.042 27.4074 13.042 28.1668C13.042 28.9261 13.6576 29.5418 14.417 29.5418H24.5003C25.2597 29.5418 25.8753 28.9261 25.8753 28.1668C25.8753 27.4074 25.2597 26.7918 24.5003 26.7918H20.3753V11.2084H22.667C23.5743 11.2084 24.1014 11.212 24.4756 11.2679C24.6439 11.2931 24.7222 11.3217 24.7526 11.3357C24.7691 11.3432 24.7709 11.3454 24.7735 11.3484C24.7788 11.3542 24.7957 11.3733 24.8177 11.4325C24.8437 11.5026 24.8758 11.625 24.9015 11.8375C24.9563 12.2903 24.9587 12.9122 24.9587 13.9075V14.8751C24.9587 15.6345 25.5743 16.2501 26.3337 16.2501C27.093 16.2501 27.7087 15.6345 27.7087 14.8751V13.8292C27.7087 12.9361 27.7088 12.1452 27.6317 11.5071C27.549 10.8245 27.3585 10.1099 26.8188 9.51022C26.2603 8.8898 25.5618 8.64967 24.8818 8.54809C24.28 8.45816 23.5431 8.45829 22.755 8.45842H15.2456Z" fill="#1B1B1B"/>
</svg>
