<svg width="32" height="32" viewBox="0 0 32 32" fill="none" xmlns="http://www.w3.org/2000/svg">
<path d="M27.3798 4.61913C25.4272 2.6665 22.2844 2.6665 15.9991 2.6665C9.71369 2.6665 6.571 2.6665 4.61838 4.61913C3.6084 5.6291 3.12082 6.95749 2.88544 8.87448C3.593 8.08693 4.44317 7.43088 5.39784 6.94445C6.43981 6.41353 7.55554 6.19824 8.7909 6.0973C9.98441 5.9998 11.453 5.99981 13.2486 5.99984H18.7495C20.5452 5.99981 22.0138 5.9998 23.2072 6.0973C24.4427 6.19824 25.5584 6.41353 26.6003 6.94445C27.555 7.43088 28.4052 8.08693 29.1127 8.87448C28.8774 6.95749 28.3898 5.6291 27.3798 4.61913Z" fill="white"/>
<path fill-rule="evenodd" clip-rule="evenodd" d="M2.66669 18.6667C2.66669 14.9329 2.66669 13.0661 3.39331 11.6401C4.03246 10.3857 5.05234 9.36577 6.30675 8.72663C7.73283 8 9.59967 8 13.3334 8H18.6667C22.4004 8 24.2672 8 25.6934 8.72663C26.9478 9.36577 27.9676 10.3857 28.6067 11.6401C29.3333 13.0661 29.3333 14.9329 29.3333 18.6667C29.3333 22.4004 29.3333 24.2672 28.6067 25.6933C27.9676 26.9477 26.9478 27.9676 25.6934 28.6067C24.2672 29.3333 22.4004 29.3333 18.6667 29.3333H13.3334C9.59967 29.3333 7.73283 29.3333 6.30675 28.6067C5.05234 27.9676 4.03246 26.9477 3.39331 25.6933C2.66669 24.2672 2.66669 22.4004 2.66669 18.6667ZM16.7071 23.3737C16.5196 23.5613 16.2652 23.6667 16 23.6667C15.7348 23.6667 15.4804 23.5613 15.293 23.3737L11.9596 20.0404C11.5691 19.6499 11.5691 19.0168 11.9596 18.6263C12.3501 18.2357 12.9833 18.2357 13.3738 18.6263L15 20.2524V14.6667C15 14.1144 15.4478 13.6667 16 13.6667C16.5523 13.6667 17 14.1144 17 14.6667V20.2524L18.6263 18.6263C19.0168 18.2357 19.6499 18.2357 20.0404 18.6263C20.431 19.0168 20.431 19.6499 20.0404 20.0404L16.7071 23.3737Z" fill="white"/>
</svg>
