<svg width="40" height="39" viewBox="0 0 40 39" fill="none" xmlns="http://www.w3.org/2000/svg">
<path d="M10.4128 5.58097L10.4128 5.58098L10.372 5.6024C8.97995 6.33291 7.8114 6.94613 6.86368 7.52609C5.90002 8.11579 5.0792 8.72094 4.41858 9.46907L3.12748 10.9312L4.87215 11.8036L19.4064 19.0707L20.0772 19.4061L20.748 19.0707L35.2823 11.8036L37.0269 10.9312L35.7358 9.46908C35.0752 8.72095 34.2544 8.1158 33.2908 7.52609C32.3429 6.946 31.174 6.33264 29.7815 5.60193L29.7416 5.58097L29.7416 5.58097L26.5262 3.8936L26.4654 3.86169C25.1057 3.14814 23.9963 2.56591 23.0373 2.16932C22.0364 1.7554 21.1015 1.5 20.0772 1.5C19.053 1.5 18.118 1.7554 17.1171 2.16932C16.1582 2.56591 15.0487 3.14813 13.6891 3.86168L13.6283 3.8936L10.4128 5.58097Z" fill="white" stroke="#014FED" stroke-width="3"/>
<path d="M37.1948 12.1857L36.7058 10.4341L35.0793 11.2473L20.6124 18.4807L19.7832 18.8953V19.8223V35V36.9194L21.6457 36.4555C22.977 36.1239 24.4314 35.3604 26.3497 34.3534C26.4082 34.3227 26.4671 34.2918 26.5264 34.2607L29.7418 32.5734L29.7418 32.5734L29.8139 32.5355C31.4827 31.6598 32.8386 30.9482 33.8896 30.2464C34.9871 29.5135 35.8534 28.7276 36.4867 27.6523C37.1174 26.5812 37.3952 25.4292 37.5273 24.0888C37.6546 22.7963 37.6546 21.2123 37.6546 19.2474V19.1712V18.9831C37.6546 18.9021 37.6546 18.8217 37.6546 18.7418C37.655 15.9183 37.6552 13.8348 37.1948 12.1857Z" fill="white" stroke="#014FED" stroke-width="3"/>
<path d="M18.5089 36.4555L20.3714 36.9194V35V19.8224V18.8953L19.5422 18.4807L5.07538 11.2473L3.44888 10.4341L2.95983 12.1856C2.49935 13.8348 2.49962 15.9183 2.49998 18.7418C2.49999 18.8217 2.5 18.9021 2.5 18.9831V19.1712L2.5 19.2475C2.49998 21.2124 2.49996 22.7964 2.62728 24.0888C2.75933 25.4292 3.03718 26.5812 3.6679 27.6523C4.30112 28.7276 5.16748 29.5135 6.26503 30.2464C7.31588 30.9482 8.67168 31.6597 10.3403 32.5354L10.4127 32.5734L10.4128 32.5734L13.6282 34.2607C13.6282 34.2607 13.6282 34.2607 13.6282 34.2607C13.6878 34.292 13.747 34.323 13.8057 34.3539C15.7236 35.3607 17.1778 36.124 18.5089 36.4555Z" fill="white" stroke="#014FED" stroke-width="3"/>
</svg>
