<svg width="44" height="36" viewBox="0 0 44 36" fill="none" xmlns="http://www.w3.org/2000/svg">
<path fill-rule="evenodd" clip-rule="evenodd" d="M22 0C21.1195 3.8739e-05 20.2636 0.290605 19.5651 0.826636C18.8665 1.36267 18.3644 2.11421 18.1365 2.96471C17.9086 3.81521 17.9677 4.71714 18.3046 5.53063C18.6416 6.34412 19.2375 7.02371 20 7.464V10H14C7.6 10 6 15.334 6 18V32C6 33.334 6.8 36 10 36H12V28C12 27.4696 12.2107 26.9609 12.5858 26.5858C12.9609 26.2107 13.4696 26 14 26H30C30.5304 26 31.0391 26.2107 31.4142 26.5858C31.7893 26.9609 32 27.4696 32 28V36H34C37.2 36 38 33.334 38 32V18C38 11.6 32.666 10 30 10H24V7.464C24.7625 7.02371 25.3584 6.34412 25.6954 5.53063C26.0323 4.71714 26.0914 3.81521 25.8635 2.96471C25.6356 2.11421 25.1335 1.36267 24.4349 0.826636C23.7364 0.290605 22.8805 3.8739e-05 22 0ZM28 36V30H24V36H28ZM20 36V30H16V36H20ZM40 30V20C41.334 20 44 20.8 44 24V26C44 27.334 43.2 30 40 30ZM4 20V30C0.8 30 0 27.334 0 26V24C0 20.8 2.666 20 4 20ZM16 18C15.4696 18 14.9609 18.2107 14.5858 18.5858C14.2107 18.9609 14 19.4696 14 20C14 20.5304 14.2107 21.0391 14.5858 21.4142C14.9609 21.7893 15.4696 22 16 22H16.002C16.5324 22 17.0411 21.7893 17.4162 21.4142C17.7913 21.0391 18.002 20.5304 18.002 20C18.002 19.4696 17.7913 18.9609 17.4162 18.5858C17.0411 18.2107 16.5324 18 16.002 18H16ZM26 20C26 19.4696 26.2107 18.9609 26.5858 18.5858C26.9609 18.2107 27.4696 18 28 18H28.002C28.5324 18 29.0411 18.2107 29.4162 18.5858C29.7913 18.9609 30.002 19.4696 30.002 20C30.002 20.5304 29.7913 21.0391 29.4162 21.4142C29.0411 21.7893 28.5324 22 28.002 22H28C27.4696 22 26.9609 21.7893 26.5858 21.4142C26.2107 21.0391 26 20.5304 26 20Z" fill="#1B1B1B"/>
</svg>
