<svg width="70" height="70" viewBox="0 0 70 70" fill="none" xmlns="http://www.w3.org/2000/svg">
<path d="M62.3334 69.1666H11.0834C5.42246 69.1666 0.833374 64.5776 0.833374 58.9166V11.0833C0.833374 5.42239 5.42246 0.833313 11.0834 0.833313H45.25C50.911 0.833313 55.5 5.42239 55.5 11.0833V21.3333M62.3334 69.1666C58.5594 69.1666 55.5 66.1073 55.5 62.3333V21.3333M62.3334 69.1666C66.1073 69.1666 69.1667 66.1073 69.1667 62.3333V28.1666C69.1667 24.3927 66.1073 21.3333 62.3334 21.3333H55.5M14.5 17.9166H41.8334M14.5 35H41.8334M14.5 52.0833H28.1667" stroke="#28303F" stroke-width="1.5" stroke-linecap="round" stroke-linejoin="round"/>
</svg>
