<svg width="50" height="50" viewBox="0 0 50 50" fill="none" xmlns="http://www.w3.org/2000/svg">
<path d="M15.8003 36.5H28.0669M21.9337 13.5H34.2003M21.9337 36.5L28.0669 13.5" stroke="white" stroke-width="3" stroke-linecap="round" stroke-linejoin="round"/>
<path d="M48 25C48 35.8422 48 41.2635 44.6316 44.6316C41.2635 48 35.8422 48 25 48C14.1577 48 8.73654 48 5.36828 44.6316C2 41.2635 2 35.8422 2 25C2 14.1577 2 8.73654 5.36828 5.36828C8.73654 2 14.1577 2 25 2C35.8422 2 41.2635 2 44.6316 5.36828C46.8714 7.60788 47.6219 10.7551 47.8733 15.8" stroke="white" stroke-width="3" stroke-linecap="round"/>
</svg>
