<svg width="32" height="32" viewBox="0 0 32 32" fill="none" xmlns="http://www.w3.org/2000/svg">
<g clip-path="url(#clip0_554_4)">
<path d="M29 0C30.6569 0 32 1.34312 32 3V21C32 22.6569 30.6569 24 29 24H11C9.34313 24 8 22.6569 8 21V3C8 1.34312 9.34313 0 11 0H29ZM11 26C8.243 26 6 23.757 6 21V8H3C1.34312 8 0 9.34313 0 11V29C0 30.6569 1.34312 32 3 32H21C22.6569 32 24 30.6569 24 29V26H11Z" fill="white"/>
</g>
<defs>
<clipPath id="clip0_554_4">
<rect width="32" height="32" fill="white"/>
</clipPath>
</defs>
</svg>
