<svg width="38" height="35" viewBox="0 0 38 35" fill="none" xmlns="http://www.w3.org/2000/svg">
<path fill-rule="evenodd" clip-rule="evenodd" d="M37.5014 10.9962L31.5156 1.53133C30.9117 0.576745 29.8518 -0.00224609 28.7124 6.54914e-06H9.2876C8.14816 -0.00224609 7.08827 0.576745 6.48436 1.53133L0.498626 10.9962C-0.262999 12.2043 -0.142823 13.7609 0.795439 14.8408L17.7468 34.3897C18.0601 34.7516 18.518 34.96 19 34.96C19.482 34.96 19.9399 34.7516 20.2532 34.3897L37.2046 14.8408C38.1428 13.7609 38.263 12.2043 37.5014 10.9962V10.9962ZM20.4532 31.7787C20.0956 32.0639 19.6355 32.1992 19.1747 32.1549C18.7139 32.1105 18.2902 31.8901 17.9974 31.5424L10.247 22.3412C9.63624 21.6186 9.74541 20.5528 10.4909 19.9607C11.2363 19.3686 12.3358 19.4745 12.9466 20.1971L20.697 29.3982C21.0023 29.7468 21.1487 30.2004 21.1027 30.6554C21.0568 31.1105 20.8224 31.528 20.4532 31.8125V31.7787Z" fill="white"/>
</svg>
