<svg width="25" height="16" viewBox="0 0 25 16" fill="none" xmlns="http://www.w3.org/2000/svg">
<path fill-rule="evenodd" clip-rule="evenodd" d="M12.6015 0.00878906C19.1261 0.00878906 24.2346 6.95642 24.4491 7.25224C24.6524 7.53261 24.6524 7.91354 24.4491 8.19414C24.2346 8.48968 19.1261 15.4374 12.6015 15.4374C6.07686 15.4374 0.968032 8.48973 0.75386 8.1939C0.550797 7.91326 0.550797 7.53261 0.75386 7.25196C0.968032 6.95642 6.07686 0.00878906 12.6015 0.00878906ZM2.39844 7.72252C3.63064 9.23002 7.7932 13.8413 12.5993 13.8413C17.4156 13.8413 21.5695 9.23238 22.8001 7.72361C21.5674 6.21531 17.4051 1.60483 12.5993 1.60483C7.78289 1.60483 3.62905 6.2137 2.39844 7.72252Z" fill="black"/>
<path fill-rule="evenodd" clip-rule="evenodd" d="M7.46094 7.29436C7.46094 4.69496 9.57581 2.58008 12.1752 2.58008C14.7746 2.58008 16.8895 4.69496 16.8895 7.29436C16.8895 9.89377 14.7746 12.0086 12.1752 12.0086C9.57581 12.0086 7.46094 9.89377 7.46094 7.29436ZM9.03125 7.29438C9.03125 9.02736 10.441 10.4372 12.1741 10.4372C13.9071 10.4372 15.3169 9.02736 15.3169 7.29438C15.3169 5.56139 13.9071 4.15155 12.1741 4.15155C10.4411 4.15155 9.03125 5.56139 9.03125 7.29438Z" fill="black"/>
</svg>
