<svg width="48" height="38" viewBox="0 0 48 38" fill="none" xmlns="http://www.w3.org/2000/svg">
<path fill-rule="evenodd" clip-rule="evenodd" d="M21.9067 31.3144L5.92308 14.9005C5.22008 14.1196 5.12269 12.9759 5.68557 12.0918L11.0103 5.687C11.4449 5.00692 12.2049 4.68968 13.0219 4.68968H34.4681C35.2685 4.68968 36.0142 4.98857 36.4536 5.64989L41.7023 11.7115C42.2889 12.5909 42.2082 13.7229 41.5075 14.5155L25.4692 31.3098C24.5287 32.3721 22.8567 32.3697 21.9067 31.3144ZM35.8622 0H11.7085C10.0745 0 8.55451 0.731804 7.68526 2.09899L0.726549 11.1397C-0.396822 12.9079 -0.2021 15.1698 1.2039 16.7293L20.1801 36.4332C22.0825 38.5391 25.4217 38.5184 27.3027 36.3938L46.3264 16.2399C47.7253 14.6594 47.8915 12.3512 46.7302 10.5924L39.8451 2.03289C38.9687 0.703228 37.4701 0 35.8622 0Z" fill="white"/>
</svg>
